<svg xmlns="http://www.w3.org/2000/svg" width="10.628" height="19.618" viewBox="0 0 10.628 19.618">
  <path id="arrowright" d="M1.921,9.788c.236.218.4.36.553.513q3.877,3.878,7.751,7.759a2.553,2.553,0,0,1,.228.25.787.787,0,0,1-.048,1.045.807.807,0,0,1-1.064.114,1.948,1.948,0,0,1-.252-.225L.378,10.53a.868.868,0,0,1,0-1.431L9.16.31A.813.813,0,0,1,10.412.279a.793.793,0,0,1,.019,1.067c-.072.087-.151.168-.231.247Q6.214,5.584,2.226,9.571A2.55,2.55,0,0,1,1.921,9.788Z" transform="translate(10.628 19.618) rotate(180)" fill="#fff"/>
</svg>
