<svg id="asap" xmlns="http://www.w3.org/2000/svg" xmlns:xlink="http://www.w3.org/1999/xlink" width="84.141" height="87.461" viewBox="0 0 84.141 87.461">
  <defs>
    <clipPath id="clip-path">
      <rect id="Rectangle_634" data-name="Rectangle 634" width="84.141" height="87.461" fill="none"/>
    </clipPath>
  </defs>
  <g id="Group_5382" data-name="Group 5382" clip-path="url(#clip-path)">
    <path id="Path_38289" data-name="Path 38289" d="M91.105,68A29.366,29.366,0,1,1,61.731,97.385,29.453,29.453,0,0,1,91.105,68m-4.338,34.072.549,7.942h7.776c.142-2.634.283-5.235.429-7.942ZM95,83.607h-7.61l-.583,7.877h8.711c-.176-2.67-.344-5.216-.519-7.877m-8.109,16.731H95.4V93.187H86.894Zm-8.756-8.36L73.023,90.8a51.209,51.209,0,0,0-.075,12.048c1.53-.367,2.906-.758,4.308-1.011.848-.153,1.008-.558.942-1.324-.082-.951-.055-1.913-.059-2.87-.007-1.874,0-3.748,0-5.662m31.2,10.856a42.968,42.968,0,0,0-.052-12.035l-5.16,1.2c0,3.036-.012,6,.022,8.973a.915.915,0,0,0,.5.692c1.535.423,3.09.777,4.687,1.165M114.066,89.1c-.911.325-1.734.653-2.579.909-.585.178-.679.516-.6,1.066a26.088,26.088,0,0,1,.375,3.553c0,2.591-.133,5.182-.185,7.774-.007.336.038.884.231.976.928.443,1.914.764,2.9,1.134a30.629,30.629,0,0,0-.135-15.412M68.092,104.545l3.326-1.264a40.564,40.564,0,0,1,.142-13.007L68.242,89.1a34.05,34.05,0,0,0-.15,15.449M88.58,119.523c1.652,0,3.11.015,4.567-.017.209,0,.569-.211.6-.369.424-2.463.8-4.933,1.216-7.526H87.395l1.185,7.912m.161-45.4L87.484,81.9h7.349l-1.219-7.769Zm8.384,18.821c0,1.858.05,3.63-.013,5.4-.074,2.082-.118,2.093,1.9,2.439,1.123.193,2.255.335,3.608.533,0-1.634.024-3.1-.007-4.562s-.115-2.91-.179-4.443l-5.307.636M79.846,92.3v9.008l5.354-.786V92.948L79.846,92.3m21.387,18.639,1.276-8.035-5.4-.711c-.161,2.57-.324,4.914-.43,7.261-.012.263.26.735.472.781,1.292.278,2.6.461,4.086.705m-20.135.069c.849-.188,1.506-.349,2.169-.477.764-.148,1.868-.013,2.211-.466.389-.514.13-1.543.1-2.347-.075-1.794-.185-3.587-.29-5.544l-5.416.734,1.23,8.1M97.072,91.468c1.681-.256,3.229-.469,4.763-.758.178-.034.421-.515.387-.753q-.488-3.392-1.095-6.766a.837.837,0,0,0-.7-.406c-1.274.19-2.537.455-3.89.712.175,2.606.347,5.185.534,7.972M81.265,82.64l-1.3,8.036,5.351.778c.155-2.8.3-5.372.442-7.969l-4.5-.845M78.25,103.153l-5.182,1.333,2.279,8.124,4.1-1.318-1.2-8.138m28.722,9.463,2.326-8.126-5.19-1.337L102.9,111.29l4.071,1.326M75.624,81.066c-.732,2.572-1.45,5.043-2.114,7.529a.853.853,0,0,0,.437.71c1.435.4,2.891.73,4.375,1.09l1.339-8.11-4.036-1.22M102.7,82.284l1.318,8.139,4.985-1.3a34.926,34.926,0,0,0-2.542-7.992L102.7,82.284M66.577,105.2c-.064-.365-.1-.632-.159-.9a34.712,34.712,0,0,1,.055-14.448c.325-1.523.315-1.6-1.326-2.039a29.069,29.069,0,0,0-.229,18.117l1.659-.734m50.544-17.57c-.457.67-1.758.221-1.4,1.655a35.509,35.509,0,0,1,.317,14.628c-.243,1.459-.29,1.462,1.422,1.939a29.248,29.248,0,0,0-.342-18.223M95.355,119.7c2.4.757,2.4.757,3.416-1.361.059-.123.154-.231.2-.357.645-1.8,1.285-3.608,1.974-5.548l-4.406-.587L95.355,119.7m-8.39.055-1.132-7.934-4.272.614a31.8,31.8,0,0,0,2.672,7.4.887.887,0,0,0,.736.34,19.793,19.793,0,0,0,2-.416m.153-45.919L84.7,73.345l-3.117,7.79,4.353.629,1.181-7.931m13.67,7.3-3.175-7.8-2.4.5,1.21,7.906,4.366-.613m-.09,40.586a20.913,20.913,0,0,0,5.363-7.7l-3.494-1.106-3.023,8.094,1.153.714m-20.92-8.829-3.571,1.175a23.883,23.883,0,0,0,5.376,7.668l1.216-.717-3.021-8.125m-8.314-7.837L68.5,106.107a25.515,25.515,0,0,0,3.528,8.135,6.911,6.911,0,0,0,1.331-.73,1.179,1.179,0,0,0,.4-.933c-.714-2.472-1.5-4.924-2.3-7.523m38.909,9.136a26.548,26.548,0,0,0,3.332-7.564.709.709,0,0,0-.277-.628c-.888-.367-1.8-.665-2.8-1.019-.089.511-.121.813-.2,1.1-.464,1.775-.832,3.585-1.436,5.312-.7,1.994-.789,1.963,1.381,2.8m.217-25.509c.918-.356,1.805-.672,2.659-1.059.139-.063.237-.475.178-.674a25.833,25.833,0,0,0-3.444-7.322c-1.927.636-2.04.884-1.3,2.645a16.216,16.216,0,0,1,.689,1.808c.418,1.47.786,2.953,1.22,4.6M74.172,80.49A9.412,9.412,0,0,1,73.3,80c-.694-.487-1.113-.352-1.482.439-.5,1.077-1.2,2.064-1.684,3.149-.554,1.255-.96,2.576-1.453,3.932l2.973,1.127,2.521-8.155m31.49-.9c-.7-2.131-3.334-5.412-4.872-6.887-.705-.676-1.188-.3-1.774.143.445.855.906,1.656,1.284,2.494a23.554,23.554,0,0,1,1,2.576c1.011,3.2.253,3.256,4.116,1.827a1.454,1.454,0,0,0,.249-.153m-22.525-6.9c-.54-.552-1.2-.529-1.818.24-1.132,1.407-2.3,2.791-3.373,4.239a24.6,24.6,0,0,0-1.436,2.494c1.1.337,2,.626,2.906.888.544.157.835-.018,1.044-.615.84-2.4,1.757-4.776,2.677-7.246m10.23,48.435h-4.4a26.522,26.522,0,0,0,1.131,3.265c.151.311.885.442,1.358.455a1.144,1.144,0,0,0,.894-.555c.4-.994.668-2.038,1.019-3.165m9.614.992a25.623,25.623,0,0,0,6.571-6.585l-1.688-.741-4.883,7.327m-23.664-.019-4.826-7.329-1.718.784a27.557,27.557,0,0,0,6.544,6.546m-8.942-7.012-3.6-8.179-1.212.53a21.51,21.51,0,0,0,4.81,7.649m41.612-.043a21.359,21.359,0,0,0,4.813-7.626l-1.241-.488-3.571,8.114M79.47,72.27a25.058,25.058,0,0,0-6.194,6.008l1.607.643L79.47,72.27m29.617,6a24.611,24.611,0,0,0-6.176-5.945l4.552,6.6,1.624-.65M92.965,72.516c-.293-2.512-.6-2.921-2.086-2.852-.891.041-1.389,1.016-1.431,2.852ZM70.718,78.832a24.269,24.269,0,0,0-4.867,7.449l1.188.474,3.679-7.923M116.495,86.3a26.448,26.448,0,0,0-5.036-7.782l3.853,8.2,1.183-.422M85.371,121.865c1,1.156,1.6,2.37,3.056,2.891l-1.107-3.4-1.949.512m8.657,2.721.3.234,2.74-2.945-2.109-.516-.934,3.227M88.373,69.909l-.283-.245-2.227,2.174,1.643.455.867-2.383m8.135,1.922-2.235-2.146-.249.237.761,2.388,1.723-.479m1.207,52.247,1.692-1.225c-.956-.518-1.233-.335-1.692,1.225M82.942,122.89l1.73,1.171c-.589-1.618-.8-1.752-1.73-1.171" transform="translate(-49.024 -54.003)" fill="#fff"/>
    <path id="Path_38290" data-name="Path 38290" d="M0,252.494l11.586-3.988A31.46,31.46,0,0,0,26.62,268.344a30.454,30.454,0,0,0,19.964,3.79A31.479,31.479,0,0,0,72.477,249.4l11.665,3.53C80.2,268.792,64.48,284.754,42.227,284.813A43.453,43.453,0,0,1,0,252.494M9.267,259.6c-.729,1.474-2.853,2.28-1.769,4.364l7.273-1.776L13.99,261l-4.216,1.414-.176-.3,3.087-3.3-.855-1.364-4.258,1.682-.1-.217,3.2-3.395L9.56,253.7c-.578.7-1.1,1.359-1.642,1.991-.736.852-1.5,1.678-2.241,2.527a1.879,1.879,0,0,0-.157,2.411L9.267,259.6M59.4,275.03c-.7-.864-1.465-1.684-2.081-2.605s-1.253-1.14-2.147-.44a3.648,3.648,0,0,1-.444.258,6.536,6.536,0,0,1,.995,4.207c-.756-.959-1.528-1.86-2.2-2.828-.385-.551-.735-.731-1.338-.382-.394.228-.83.385-1.3.6a7.006,7.006,0,0,1,.967.782c.878,1.039,1.741,2.092,2.572,3.169a2.316,2.316,0,0,0,2.917.982l-.64-4.055c1.305,1.114,1.842,3.186,4.139,2.468l-.688-7.254-1.69.647c1.335,1.295.631,2.965.944,4.455m7.568-10.94,5.5,4.462c.706-.9,1.439-1.795,2.128-2.722a3.207,3.207,0,0,0-.534-4.333,3.245,3.245,0,0,0-4.529-.3c-.958.906-1.762,1.976-2.57,2.9M17.031,265.4a3.687,3.687,0,0,0-3.577,3.633,4.395,4.395,0,0,0,4.216,4.081,3.877,3.877,0,0,0,3.686-3.7,4.5,4.5,0,0,0-4.324-4.017m25.15,16.389c1.163-.133,2.448-.249,3.722-.433a3.23,3.23,0,0,0,2.628-3.664,3.4,3.4,0,0,0-3.1-3.226c-1.276-.033-2.558.135-3.784.211.279,2.422.838,4.712.53,7.112m-14.636-6.4a1.8,1.8,0,0,0,1.98-1.678c.087-1.062-.684-1.647-1.581-2.033-.925-.4-1.861-.774-2.591-1.076l-2.8,6.424,1.988.829.884-2.25c.64,3.347.64,3.347,2.579,3.624-.147-1.232-.3-2.47-.46-3.84m45.089-19.11,6.409,2.92,1.844-3.956-1.127-.831c-.345,2.376-1.046,2.75-2.7,1.5l.7-1.157-1.2-.424-.593,1.232-1.458-.75.85-1.465-1.092-.548-1.632,3.481M37.523,280.215a17.571,17.571,0,0,1-1.934-.189c-.22-.044-.57-.4-.544-.562.282-1.736.628-3.462.972-5.273l-2.037-.376L32.774,280.7c.964.148,2.151.262,3.3.527.958.221,1.29-.2,1.445-1.017m24.985-12.342,4.373,5.505,1.617-1.285-4.375-5.514-1.615,1.293" transform="translate(0 -197.352)" fill="#fff"/>
    <path id="Path_38291" data-name="Path 38291" d="M91.507,40.951l-3.342,2.17A2.385,2.385,0,0,0,86.1,40.876c-.841-.006-1.774.913-2.5,1.6-.384.363.557,2.308,1.278,2.758l-2.192,1.418q-.93-4.117-1.863-8.229a3.452,3.452,0,0,0-.318-.97,13.081,13.081,0,0,0-.89-1.2l2.843-1.893,9.052,6.591m-9.014-3.119-.229.127.854,2.932,1.768-1.168-2.393-1.891" transform="translate(-63.224 -27.287)" fill="#fff"/>
    <path id="Path_38292" data-name="Path 38292" d="M214.484,16.522l-2.7-.6c1.894-3.066,4.1-5.9,5.345-9.469.755.152,1.813.341,2.854.6a.807.807,0,0,1,.42.574c.414,2.66.785,5.327,1.2,7.987.128.821.353,1.626.542,2.475l-4.132-.761c.632-.691.943-2.855.408-3.067a8.883,8.883,0,0,0-3.143-.573c-.537,0-1.091,2.018-.788,2.84m3.75-3.905-.5-3.2c-.393.614-.661,1-.9,1.408s-.42.808-.654,1.264l2.049.526" transform="translate(-168.186 -5.122)" fill="#fff"/>
    <path id="Path_38293" data-name="Path 38293" d="M152.716,1.121l.171-1.1L153.126,0l.3.959c1.866.332,1.914.382,1.8,1.872l-1.709-.156V4.84c3.291.956,4.116,2.031,4.074,3.925-.035,1.582-1.323,2.7-3.467,3.218l-.581,1.185-.546-1.009c-1.366.1-2.838.1-2.89-1.958l2.866.459a2.586,2.586,0,0,0,.1-.325,5.054,5.054,0,0,0-.09-2.113c-.243-.462-1.086-.621-1.677-.885-1.839-.823-2.511-1.888-2.17-3.543A3.231,3.231,0,0,1,151.383,1.5a12.309,12.309,0,0,1,1.333-.379m1.261,6.907-.166.148V10.26l.287.122c.253-.387.735-.8.7-1.156-.04-.421-.528-.8-.822-1.2m-1.138-5.089-.3-.141c-.2.3-.573.617-.547.9a3.41,3.41,0,0,0,.583,1.133l.279-.138a4.525,4.525,0,0,0,.056-.577c-.01-.391-.044-.782-.069-1.173" transform="translate(-118.361)" fill="#fff"/>
    <path id="Path_38294" data-name="Path 38294" d="M282.742,41.085,279.7,39c1.251-.936,5.6-7.352,5.821-8.667,1.469,1.038,2.921,1.977,4.272,3.045a2.578,2.578,0,0,1,.616,3.64,2.786,2.786,0,0,1-3.436,1.218c-.559-.2-1.089-.477-1.781-.786,2.81-1.131,3.6-2.581,2.252-3.8-1.077.816-4.426,6.023-4.7,7.431" transform="translate(-222.126 -24.092)" fill="#fff"/>
    <path id="Path_38295" data-name="Path 38295" d="M341.492,319.55c-1.253-1.021-2.322-1.846-3.318-2.751a.966.966,0,0,1,.019-.955,1.757,1.757,0,0,1,1.107-.376,2.866,2.866,0,0,1,2.725,2.313,5.343,5.343,0,0,1-.533,1.77" transform="translate(-268.469 -250.529)" fill="#fff"/>
    <path id="Path_38296" data-name="Path 38296" d="M75.525,342.929a1.543,1.543,0,0,1-1.671-1.907,3.252,3.252,0,0,1,1.943-2.575,2.135,2.135,0,0,1,1.659.165,1.919,1.919,0,0,1,.645,1.449,3.1,3.1,0,0,1-2.576,2.867" transform="translate(-58.611 -268.705)" fill="#fff"/>
    <path id="Path_38297" data-name="Path 38297" d="M216.025,382.653c0,1.49-.44,2.208-1.413,2.285a.922.922,0,0,1-.741-.5c-.176-1.171-.283-2.356-.347-3.54-.035-.653.749-.888,1.449-.446a2.265,2.265,0,0,1,1.051,2.2" transform="translate(-169.57 -301.958)" fill="#fff"/>
    <path id="Path_38298" data-name="Path 38298" d="M127.476,364.623c.09.433.381.974.22,1.272-.221.412-.784.64-1.2.947l-.235-.264.816-1.9.4-.053" transform="translate(-100.271 -289.567)" fill="#fff"/>
  </g>
</svg>
