<svg xmlns="http://www.w3.org/2000/svg" width="192.809" height="22.222" viewBox="0 0 192.809 22.222">
  <g id="bclogosmall" transform="translate(12503.547 -12229.39)">
    <path id="Path_38288" data-name="Path 38288" d="M127.793,15.977l1.875.574a7.948,7.948,0,0,1-2.174,4.318,5.39,5.39,0,0,1-3.779,1.424,5.759,5.759,0,0,1-3.346-.955,6.757,6.757,0,0,1-2.273-3.064,12.821,12.821,0,0,1-.885-4.98,11.648,11.648,0,0,1,.885-4.8,6.779,6.779,0,0,1,2.4-2.965,5.976,5.976,0,0,1,3.375-1,5.167,5.167,0,0,1,3.5,1.271,6.886,6.886,0,0,1,2.051,3.732l-1.828.527q-.937-3.586-3.762-3.586a4.147,4.147,0,0,0-2.437.721,4.858,4.858,0,0,0-1.646,2.244,10.38,10.38,0,0,0-.615,3.855,9.209,9.209,0,0,0,1.242,5.291,3.854,3.854,0,0,0,3.3,1.764,3.633,3.633,0,0,0,2.631-1.084A5.851,5.851,0,0,0,127.793,15.977ZM130.453,22l5.414-17.18h2L143.637,22H141.5l-1.641-5.2H133.98L132.434,22Zm4.066-7.055h4.77l-1.465-4.758q-.68-2.191-1-3.562a25.562,25.562,0,0,1-.762,3.281Zm9.973,1.535,1.758-.187a5.114,5.114,0,0,0,.639,2.209,3.589,3.589,0,0,0,1.424,1.271,4.461,4.461,0,0,0,2.086.48,3.768,3.768,0,0,0,2.584-.814,2.693,2.693,0,0,0,.92-2.115,2.577,2.577,0,0,0-.334-1.33,2.514,2.514,0,0,0-1.008-.932,18.544,18.544,0,0,0-2.912-1.02,10.173,10.173,0,0,1-2.836-1.184,4.133,4.133,0,0,1-1.312-1.518,4.516,4.516,0,0,1-.469-2.08,4.573,4.573,0,0,1,1.348-3.41,4.958,4.958,0,0,1,3.633-1.324,5.808,5.808,0,0,1,2.748.621,4.414,4.414,0,0,1,1.828,1.781,5.861,5.861,0,0,1,.7,2.73l-1.793.164a3.7,3.7,0,0,0-1-2.484,3.4,3.4,0,0,0-2.42-.809,3.626,3.626,0,0,0-2.414.709,2.3,2.3,0,0,0-.832,1.834,2.114,2.114,0,0,0,.609,1.617,7.262,7.262,0,0,0,2.742,1.16,18.03,18.03,0,0,1,2.93,1,4.715,4.715,0,0,1,1.945,1.729,4.81,4.81,0,0,1,.656,2.561,5.334,5.334,0,0,1-.691,2.689,4.646,4.646,0,0,1-1.881,1.846,6.027,6.027,0,0,1-2.865.633,5.6,5.6,0,0,1-4.166-1.57A5.982,5.982,0,0,1,144.492,16.48ZM167.449,4.82h1.875v9.926a14.377,14.377,0,0,1-.486,4.1,4.7,4.7,0,0,1-1.77,2.525,5.439,5.439,0,0,1-3.264.926,5.131,5.131,0,0,1-4.178-1.664q-1.389-1.664-1.389-5.883V4.82H160.1v9.914a11.222,11.222,0,0,0,.363,3.375,3.023,3.023,0,0,0,1.189,1.588,3.569,3.569,0,0,0,2.01.545,3.475,3.475,0,0,0,2.889-1.125q.9-1.125.9-4.383ZM170.906,22,176.32,4.82h2L184.09,22h-2.133l-1.641-5.2h-5.883L172.887,22Zm4.066-7.055h4.77l-1.465-4.758q-.68-2.191-1-3.562a25.562,25.562,0,0,1-.762,3.281ZM185.461,22V4.82h1.863V19.973h6.938V22Z" transform="translate(-12505 12227)" fill="#fff"/>
    <path id="Path_38287" data-name="Path 38287" d="M1.453,22V4.82H6.738a5.456,5.456,0,0,1,2.543.5,3.84,3.84,0,0,1,1.535,1.553,4.647,4.647,0,0,1,.6,2.332,4.395,4.395,0,0,1-.516,2.133,4,4,0,0,1-1.453,1.523,3.822,3.822,0,0,1,1.939,1.518,4.688,4.688,0,0,1,.709,2.643,5.652,5.652,0,0,1-.639,2.736A3.94,3.94,0,0,1,9.75,21.467,6.641,6.641,0,0,1,6.82,22Zm1.863-9.961H6.363a6.127,6.127,0,0,0,1.7-.164,2.129,2.129,0,0,0,1.119-.826,2.776,2.776,0,0,0,.393-1.576,3.029,3.029,0,0,0-.357-1.541,1.9,1.9,0,0,0-.949-.85,6.545,6.545,0,0,0-2.127-.234H3.316Zm0,7.934h3.5a5.124,5.124,0,0,0,1.711-.211,2.337,2.337,0,0,0,1.213-1,3.372,3.372,0,0,0,.416-1.752,3.183,3.183,0,0,0-.4-1.646,2.39,2.39,0,0,0-1.072-.984,5.361,5.361,0,0,0-2.115-.311H3.316ZM23.848,4.82h1.875v9.926a14.377,14.377,0,0,1-.486,4.1,4.7,4.7,0,0,1-1.77,2.525,5.439,5.439,0,0,1-3.264.926,5.131,5.131,0,0,1-4.178-1.664q-1.389-1.664-1.389-5.883V4.82H16.5v9.914a11.222,11.222,0,0,0,.363,3.375A3.023,3.023,0,0,0,18.053,19.7a3.569,3.569,0,0,0,2.01.545,3.475,3.475,0,0,0,2.889-1.125q.9-1.125.9-4.383Zm4.371,11.66,1.758-.187a5.114,5.114,0,0,0,.639,2.209,3.589,3.589,0,0,0,1.424,1.271,4.461,4.461,0,0,0,2.086.48,3.768,3.768,0,0,0,2.584-.814,2.693,2.693,0,0,0,.92-2.115,2.577,2.577,0,0,0-.334-1.33,2.514,2.514,0,0,0-1.008-.932,18.544,18.544,0,0,0-2.912-1.02,10.173,10.173,0,0,1-2.836-1.184,4.133,4.133,0,0,1-1.312-1.518,4.516,4.516,0,0,1-.469-2.08,4.573,4.573,0,0,1,1.348-3.41,4.958,4.958,0,0,1,3.633-1.324,5.808,5.808,0,0,1,2.748.621A4.414,4.414,0,0,1,38.314,6.93a5.861,5.861,0,0,1,.7,2.73l-1.793.164a3.7,3.7,0,0,0-1-2.484,3.4,3.4,0,0,0-2.42-.809,3.626,3.626,0,0,0-2.414.709,2.3,2.3,0,0,0-.832,1.834,2.114,2.114,0,0,0,.609,1.617,7.262,7.262,0,0,0,2.742,1.16,18.03,18.03,0,0,1,2.93,1,4.715,4.715,0,0,1,1.945,1.729,4.81,4.81,0,0,1,.656,2.561,5.334,5.334,0,0,1-.691,2.689,4.646,4.646,0,0,1-1.881,1.846A6.027,6.027,0,0,1,34,22.3a5.6,5.6,0,0,1-4.166-1.57A5.982,5.982,0,0,1,28.219,16.48ZM42.328,22V4.82h1.863V22Zm5.063,0V4.82H49.3l7.406,13.488V4.82h1.781V22h-1.91L49.184,8.5V22Zm14.3,0V4.82H71.871V6.848h-8.32v5.262h7.793v2.016H63.551v5.848H72.2V22Zm12.457-5.52,1.758-.187a5.114,5.114,0,0,0,.639,2.209,3.589,3.589,0,0,0,1.424,1.271,4.461,4.461,0,0,0,2.086.48,3.768,3.768,0,0,0,2.584-.814,2.693,2.693,0,0,0,.92-2.115,2.577,2.577,0,0,0-.334-1.33,2.514,2.514,0,0,0-1.008-.932,18.544,18.544,0,0,0-2.912-1.02,10.173,10.173,0,0,1-2.836-1.184,4.133,4.133,0,0,1-1.312-1.518,4.516,4.516,0,0,1-.469-2.08,4.573,4.573,0,0,1,1.348-3.41,4.958,4.958,0,0,1,3.633-1.324,5.808,5.808,0,0,1,2.748.621A4.414,4.414,0,0,1,84.24,6.93a5.861,5.861,0,0,1,.7,2.73l-1.793.164a3.7,3.7,0,0,0-1-2.484,3.4,3.4,0,0,0-2.42-.809,3.626,3.626,0,0,0-2.414.709,2.3,2.3,0,0,0-.832,1.834,2.114,2.114,0,0,0,.609,1.617,7.262,7.262,0,0,0,2.742,1.16,18.03,18.03,0,0,1,2.93,1A4.715,4.715,0,0,1,84.7,14.576a4.81,4.81,0,0,1,.656,2.561,5.334,5.334,0,0,1-.691,2.689,4.646,4.646,0,0,1-1.881,1.846,6.027,6.027,0,0,1-2.865.633,5.6,5.6,0,0,1-4.166-1.57A5.982,5.982,0,0,1,74.145,16.48Zm13.125,0,1.758-.187a5.114,5.114,0,0,0,.639,2.209,3.589,3.589,0,0,0,1.424,1.271,4.461,4.461,0,0,0,2.086.48,3.768,3.768,0,0,0,2.584-.814,2.693,2.693,0,0,0,.92-2.115,2.577,2.577,0,0,0-.334-1.33,2.514,2.514,0,0,0-1.008-.932,18.544,18.544,0,0,0-2.912-1.02,10.173,10.173,0,0,1-2.836-1.184,4.133,4.133,0,0,1-1.312-1.518,4.516,4.516,0,0,1-.469-2.08,4.573,4.573,0,0,1,1.348-3.41,4.958,4.958,0,0,1,3.633-1.324,5.808,5.808,0,0,1,2.748.621A4.414,4.414,0,0,1,97.365,6.93a5.861,5.861,0,0,1,.7,2.73l-1.793.164a3.7,3.7,0,0,0-1-2.484,3.4,3.4,0,0,0-2.42-.809,3.626,3.626,0,0,0-2.414.709A2.3,2.3,0,0,0,89.6,9.074a2.114,2.114,0,0,0,.609,1.617,7.262,7.262,0,0,0,2.742,1.16,18.03,18.03,0,0,1,2.93,1,4.715,4.715,0,0,1,1.945,1.729,4.81,4.81,0,0,1,.656,2.561,5.334,5.334,0,0,1-.691,2.689,4.646,4.646,0,0,1-1.881,1.846,6.027,6.027,0,0,1-2.865.633,5.6,5.6,0,0,1-4.166-1.57A5.982,5.982,0,0,1,87.27,16.48Z" transform="translate(-12505 12227)" fill="#fff"/>
    <line id="Line_4" data-name="Line 4" y1="22" x2="5" transform="translate(-12399 12229.5)" fill="none" stroke="#80d8ff" stroke-width="1"/>
  </g>
</svg>
