<?xml version="1.0" encoding="utf-8"?>
<!-- Generator: Adobe Illustrator 27.1.1, SVG Export Plug-In . SVG Version: 6.00 Build 0)  -->
<svg version="1.1" id="Layer_1" xmlns="http://www.w3.org/2000/svg" xmlns:xlink="http://www.w3.org/1999/xlink" x="0px" y="0px"
	 viewBox="0 0 406.1 46.9" style="enable-background:new 0 0 406.1 46.9;" xml:space="preserve">
<style type="text/css">
	.st0{fill:#FFFFFF;}
	.st1{fill:none;stroke:#80D8FF;stroke-width:2.5;}
</style>
<g id="bclogolarge" transform="translate(12503.547 -12229.223)">
	<path id="Path_38288" class="st0" d="M-12237.5,12257.9l3.9,1.2c-0.9,4.1-2.4,7.1-4.6,9.1c-2.2,2-5,3.1-8,3c-2.5,0.1-5-0.6-7-2
		c-2.2-1.6-3.8-3.9-4.8-6.5c-1.3-3.3-1.9-6.9-1.9-10.5c-0.1-3.5,0.5-6.9,1.9-10.1c1.1-2.5,2.8-4.7,5-6.2c2.1-1.4,4.6-2.1,7.1-2.1
		c2.7-0.1,5.3,0.9,7.4,2.7c2.2,2.1,3.7,4.9,4.3,7.9l-3.8,1.1c-1.3-5-4-7.6-7.9-7.6c-1.8,0-3.6,0.5-5.1,1.5c-1.6,1.2-2.8,2.8-3.5,4.7
		c-0.9,2.6-1.4,5.4-1.3,8.1c0,5,0.9,8.7,2.6,11.1c1.5,2.4,4.2,3.8,7,3.7c2.1,0,4.1-0.8,5.5-2.3
		C-12238.8,12262.9-12237.7,12260.5-12237.5,12257.9z M-12231.9,12270.6l11.4-36.2h4.2l12.1,36.2h-4.5l-3.5-11h-12.4l-3.3,11
		L-12231.9,12270.6z M-12223.3,12255.7h10l-3.1-10c-1-3.1-1.7-5.6-2.1-7.5c-0.4,2.3-0.9,4.6-1.6,6.9L-12223.3,12255.7z
		 M-12202.3,12258.9l3.7-0.4c0.1,1.6,0.5,3.2,1.3,4.7c0.7,1.1,1.8,2.1,3,2.7c1.4,0.7,2.9,1,4.4,1c2,0.1,3.9-0.5,5.4-1.7
		c1.3-1.1,2-2.8,1.9-4.5c0-1-0.2-1.9-0.7-2.8c-0.5-0.8-1.2-1.5-2.1-2c-2-0.9-4-1.6-6.1-2.1c-2.1-0.5-4.1-1.4-6-2.5
		c-1.2-0.8-2.1-1.9-2.8-3.2c-0.7-1.4-1-2.9-1-4.4c-0.1-2.7,0.9-5.3,2.8-7.2c2.1-1.9,4.8-2.9,7.7-2.8c2,0,4,0.4,5.8,1.3
		c1.6,0.8,3,2.1,3.8,3.8c1,1.8,1.5,3.7,1.5,5.8l-3.8,0.3c0-1.9-0.8-3.8-2.1-5.2c-1.4-1.2-3.2-1.8-5.1-1.7c-1.8-0.1-3.6,0.4-5.1,1.5
		c-1.1,0.9-1.8,2.4-1.8,3.9c-0.1,1.3,0.4,2.5,1.3,3.4c0.9,0.8,2.8,1.6,5.8,2.4c2.1,0.5,4.2,1.2,6.2,2.1c1.7,0.8,3.1,2.1,4.1,3.6
		c1,1.6,1.4,3.5,1.4,5.4c0,2-0.5,3.9-1.5,5.7c-0.9,1.7-2.3,3-4,3.9c-1.9,0.9-3.9,1.4-6,1.3c-3.3,0.2-6.4-1-8.8-3.3
		C-12201.2,12265.5-12202.4,12262.3-12202.3,12258.9L-12202.3,12258.9z M-12153.9,12234.4h3.9v20.9c0.1,2.9-0.3,5.8-1,8.6
		c-0.6,2.1-1.9,4-3.7,5.3c-2,1.4-4.4,2-6.9,2c-3.9,0-6.8-1.2-8.8-3.5c-2-2.3-2.9-6.5-2.9-12.4v-20.9h3.9v20.9
		c-0.1,2.4,0.2,4.8,0.8,7.1c0.4,1.4,1.3,2.5,2.5,3.3c1.3,0.8,2.7,1.2,4.2,1.1c2.8,0,4.8-0.8,6.1-2.4s1.9-4.7,1.9-9.2
		L-12153.9,12234.4z M-12146.7,12270.6l11.4-36.2h4.2l12.1,36.2h-4.5l-3.5-11h-12.4l-3.3,11H-12146.7z M-12138.1,12255.7h10l-3.1-10
		c-1-3.1-1.7-5.6-2.1-7.5c-0.4,2.3-0.9,4.6-1.6,6.9L-12138.1,12255.7z M-12116,12270.6v-36.2h3.9v31.9h14.6v4.3L-12116,12270.6z"/>
	<path id="Path_38287" class="st0" d="M-12503.5,12270.6v-36.2h11.1c1.8-0.1,3.7,0.3,5.4,1c1.4,0.8,2.5,1.9,3.2,3.3
		c0.8,1.5,1.3,3.2,1.3,4.9c0,1.6-0.3,3.1-1.1,4.5c-0.7,1.3-1.8,2.4-3.1,3.2c1.7,0.6,3.1,1.7,4.1,3.2c1,1.7,1.6,3.6,1.5,5.6
		c0,2-0.4,4-1.3,5.8c-0.8,1.5-2,2.8-3.6,3.6c-1.9,0.8-4.1,1.2-6.2,1.1L-12503.5,12270.6z M-12499.6,12249.6h6.4
		c1.2,0.1,2.4-0.1,3.6-0.3c1-0.3,1.8-0.9,2.4-1.7c0.6-1,0.9-2.2,0.8-3.3c0-1.1-0.2-2.2-0.8-3.2c-0.4-0.8-1.1-1.4-2-1.8
		c-1.5-0.4-3-0.6-4.5-0.5h-5.9V12249.6z M-12499.6,12266.3h7.4c1.2,0.1,2.4-0.1,3.6-0.4c1.1-0.4,2-1.1,2.6-2.1
		c0.6-1.1,0.9-2.4,0.9-3.7c0-1.2-0.3-2.4-0.8-3.5c-0.5-0.9-1.3-1.6-2.3-2.1c-1.4-0.5-2.9-0.7-4.5-0.7h-6.9V12266.3z
		 M-12456.4,12234.4h3.9v20.9c0.1,2.9-0.3,5.8-1,8.6c-0.6,2.1-1.9,4-3.7,5.3c-2,1.4-4.4,2-6.9,2c-3.9,0-6.8-1.2-8.8-3.5
		c-2-2.3-2.9-6.5-2.9-12.4v-20.9h3.9v20.9c-0.1,2.4,0.2,4.8,0.8,7.1c0.4,1.4,1.3,2.5,2.5,3.3c1.3,0.8,2.7,1.2,4.2,1.1
		c2.8,0,4.8-0.8,6.1-2.4c1.3-1.6,1.9-4.7,1.9-9.2V12234.4z M-12447.2,12258.9l3.7-0.4c0.1,1.6,0.5,3.2,1.3,4.7
		c0.7,1.1,1.8,2.1,3,2.7c1.4,0.7,2.9,1,4.4,1c2,0.1,3.9-0.5,5.4-1.7c1.3-1.1,2-2.8,1.9-4.5c0-1-0.2-1.9-0.7-2.8
		c-0.5-0.8-1.2-1.5-2.1-2c-2-0.9-4-1.6-6.1-2.1c-2.1-0.5-4.1-1.4-6-2.5c-1.2-0.8-2.1-1.9-2.8-3.2c-0.7-1.4-1-2.9-1-4.4
		c-0.1-2.7,0.9-5.3,2.8-7.2c2.1-1.9,4.8-2.9,7.7-2.8c2,0,4,0.4,5.8,1.3c1.6,0.8,3,2.1,3.8,3.8c1,1.8,1.5,3.7,1.5,5.8l-3.8,0.3
		c0-1.9-0.8-3.8-2.1-5.2c-1.4-1.2-3.2-1.8-5.1-1.7c-1.8-0.1-3.6,0.4-5.1,1.5c-1.1,0.9-1.8,2.4-1.8,3.9c-0.1,1.3,0.4,2.5,1.3,3.4
		c0.9,0.8,2.8,1.6,5.8,2.4c2.1,0.5,4.2,1.2,6.2,2.1c1.7,0.8,3.1,2.1,4.1,3.6c1,1.6,1.4,3.5,1.4,5.4c0,2-0.5,3.9-1.5,5.7
		c-0.9,1.7-2.3,3-4,3.9c-1.9,0.9-3.9,1.4-6,1.3c-3.3,0.2-6.4-1-8.8-3.3C-12446,12265.5-12447.3,12262.3-12447.2,12258.9z
		 M-12417.5,12270.6v-36.2h3.9v36.2H-12417.5z M-12406.8,12270.6v-36.2h4l15.6,28.4v-28.4h3.8v36.2h-4l-15.6-28.4v28.4H-12406.8z
		 M-12376.7,12270.6v-36.2h21.4v4.3h-17.5v11.1h16.4v4.2h-16.4v12.3h18.2v4.3L-12376.7,12270.6z M-12350.4,12258.9l3.7-0.4
		c0.1,1.6,0.6,3.2,1.3,4.7c0.7,1.1,1.8,2.1,3,2.7c1.4,0.7,2.9,1,4.4,1c2,0.1,3.9-0.5,5.4-1.7c1.3-1.1,2-2.8,1.9-4.5
		c0-1-0.2-1.9-0.7-2.8c-0.5-0.8-1.2-1.5-2.1-2c-2-0.9-4-1.6-6.1-2.1c-2.1-0.5-4.1-1.4-6-2.5c-1.2-0.8-2.1-1.9-2.8-3.2
		c-0.7-1.4-1-2.9-1-4.4c-0.1-2.7,0.9-5.3,2.8-7.2c2.1-1.9,4.8-2.9,7.7-2.8c2,0,4,0.4,5.8,1.3c1.6,0.8,3,2.1,3.9,3.8
		c1,1.8,1.5,3.7,1.5,5.8l-3.8,0.3c0-1.9-0.8-3.8-2.1-5.2c-1.4-1.2-3.2-1.8-5.1-1.7c-1.8-0.1-3.6,0.4-5.1,1.5
		c-1.1,0.9-1.8,2.4-1.8,3.9c-0.1,1.3,0.4,2.5,1.3,3.4c0.9,0.8,2.8,1.6,5.8,2.4c2.1,0.5,4.2,1.2,6.2,2.1c1.7,0.8,3.1,2.1,4.1,3.6
		c1,1.6,1.4,3.5,1.4,5.4c0,2-0.5,3.9-1.5,5.7c-0.9,1.7-2.3,3-4,3.9c-1.9,0.9-3.9,1.4-6,1.3c-3.3,0.2-6.4-1-8.8-3.3
		C-12349.3,12265.5-12350.5,12262.3-12350.4,12258.9z M-12322.8,12258.9l3.7-0.4c0.1,1.6,0.5,3.2,1.3,4.7c0.7,1.1,1.8,2.1,3,2.7
		c1.4,0.7,2.9,1,4.4,1c2,0.1,3.9-0.5,5.4-1.7c1.3-1.1,2-2.8,1.9-4.5c0-1-0.2-1.9-0.7-2.8c-0.5-0.8-1.2-1.5-2.1-2
		c-2-0.9-4-1.6-6.1-2.1c-2.1-0.5-4.1-1.4-6-2.5c-1.2-0.8-2.1-1.9-2.8-3.2c-0.7-1.4-1-2.9-1-4.4c-0.1-2.7,0.9-5.3,2.8-7.2
		c2.1-1.9,4.8-2.9,7.7-2.8c2,0,4,0.4,5.8,1.3c1.6,0.8,3,2.1,3.8,3.8c1,1.8,1.5,3.7,1.5,5.8l-3.8,0.3c0-1.9-0.8-3.8-2.1-5.2
		c-1.4-1.2-3.2-1.8-5.1-1.7c-1.8-0.1-3.6,0.4-5.1,1.5c-1.1,0.9-1.8,2.4-1.8,3.9c-0.1,1.3,0.4,2.5,1.3,3.4c0.9,0.8,2.8,1.6,5.8,2.4
		c2.1,0.5,4.2,1.2,6.2,2.1c1.7,0.8,3.1,2.1,4.1,3.6c1,1.6,1.4,3.5,1.4,5.4c0,2-0.5,3.9-1.5,5.7c-0.9,1.7-2.3,3-4,3.9
		c-1.9,0.9-3.9,1.4-6,1.3c-3.3,0.2-6.4-1-8.8-3.3C-12321.7,12265.5-12322.9,12262.3-12322.8,12258.9L-12322.8,12258.9z"/>
	<line id="Line_4" class="st1" x1="-12283.4" y1="12275.8" x2="-12272.8" y2="12229.5"/>
</g>
</svg>
