<svg xmlns="http://www.w3.org/2000/svg" width="406.084" height="46.889" viewBox="0 0 406.084 46.889">
  <g id="bclogolarge" transform="translate(12503.547 -12229.223)">
    <path id="Path_38288" data-name="Path 38288" d="M139.5,28.641l3.949,1.209q-1.308,6.1-4.578,9.1a11.351,11.351,0,0,1-7.96,3,12.13,12.13,0,0,1-7.047-2.012,14.231,14.231,0,0,1-4.788-6.454,27,27,0,0,1-1.863-10.49,24.532,24.532,0,0,1,1.863-10.107,14.278,14.278,0,0,1,5.047-6.244,12.586,12.586,0,0,1,7.108-2.11,10.882,10.882,0,0,1,7.38,2.678,14.5,14.5,0,0,1,4.319,7.861l-3.85,1.111q-1.975-7.553-7.923-7.553a8.734,8.734,0,0,0-5.134,1.518,10.232,10.232,0,0,0-3.468,4.727,21.861,21.861,0,0,0-1.3,8.12q0,7.429,2.616,11.144a8.118,8.118,0,0,0,6.96,3.715,7.651,7.651,0,0,0,5.541-2.283A12.324,12.324,0,0,0,139.5,28.641Zm5.6,12.686L156.5,5.144h4.221l12.143,36.183h-4.492L164.92,30.369H152.53l-3.258,10.959Zm8.565-14.858h10.045l-3.085-10.021q-1.431-4.615-2.1-7.5a53.841,53.841,0,0,1-1.6,6.911Zm21,3.233,3.7-.395a10.771,10.771,0,0,0,1.345,4.652,7.559,7.559,0,0,0,3,2.678,9.4,9.4,0,0,0,4.393,1.012,7.936,7.936,0,0,0,5.442-1.715,5.672,5.672,0,0,0,1.938-4.455,5.428,5.428,0,0,0-.7-2.8,5.3,5.3,0,0,0-2.123-1.962,39.055,39.055,0,0,0-6.133-2.147,21.426,21.426,0,0,1-5.973-2.493,8.7,8.7,0,0,1-2.764-3.2A9.512,9.512,0,0,1,175.8,14.5a9.631,9.631,0,0,1,2.838-7.182,10.443,10.443,0,0,1,7.651-2.789,12.233,12.233,0,0,1,5.788,1.308,9.3,9.3,0,0,1,3.85,3.752,12.345,12.345,0,0,1,1.469,5.751l-3.776.346a7.8,7.8,0,0,0-2.11-5.232,7.159,7.159,0,0,0-5.1-1.7,7.637,7.637,0,0,0-5.084,1.493,4.839,4.839,0,0,0-1.752,3.863,4.453,4.453,0,0,0,1.283,3.406q1.283,1.209,5.775,2.443a37.973,37.973,0,0,1,6.17,2.1,9.931,9.931,0,0,1,4.1,3.641,10.131,10.131,0,0,1,1.382,5.393,11.235,11.235,0,0,1-1.456,5.664,9.786,9.786,0,0,1-3.961,3.887,12.694,12.694,0,0,1-6.035,1.333,11.783,11.783,0,0,1-8.774-3.307A12.6,12.6,0,0,1,174.669,29.7ZM223.02,5.144h3.949V26.05a30.281,30.281,0,0,1-1.024,8.626,9.907,9.907,0,0,1-3.727,5.319,11.456,11.456,0,0,1-6.874,1.95q-5.874,0-8.8-3.5t-2.925-12.39V5.144h3.924V26.025a23.635,23.635,0,0,0,.765,7.108,6.366,6.366,0,0,0,2.505,3.344,7.518,7.518,0,0,0,4.233,1.148q4.2,0,6.084-2.369t1.888-9.231ZM230.3,41.327,241.7,5.144h4.221l12.143,36.183h-4.492l-3.455-10.959h-12.39l-3.258,10.959Zm8.564-14.858h10.045l-3.085-10.021q-1.432-4.615-2.1-7.5a53.836,53.836,0,0,1-1.6,6.911Zm22.09,14.858V5.144h3.924V37.058h14.611v4.27Z" transform="translate(-12376.954 12229.243)"/>
    <path id="Path_38287" data-name="Path 38287" d="M1.453,41.327V5.144H12.584A11.49,11.49,0,0,1,17.94,6.193a8.088,8.088,0,0,1,3.233,3.27,9.788,9.788,0,0,1,1.259,4.912,9.256,9.256,0,0,1-1.086,4.492,8.423,8.423,0,0,1-3.061,3.209,8.049,8.049,0,0,1,4.085,3.2,9.874,9.874,0,0,1,1.493,5.566A11.9,11.9,0,0,1,22.519,36.6a8.3,8.3,0,0,1-3.591,3.6,13.988,13.988,0,0,1-6.17,1.123ZM5.377,20.348h6.417A12.9,12.9,0,0,0,15.373,20a4.483,4.483,0,0,0,2.357-1.74,5.848,5.848,0,0,0,.827-3.32A6.38,6.38,0,0,0,17.8,11.7a4,4,0,0,0-2-1.789,13.784,13.784,0,0,0-4.48-.494H5.377Zm0,16.709h7.38a10.791,10.791,0,0,0,3.6-.444,4.923,4.923,0,0,0,2.555-2.11,7.1,7.1,0,0,0,.876-3.69,6.7,6.7,0,0,0-.839-3.468,5.035,5.035,0,0,0-2.258-2.073,11.29,11.29,0,0,0-4.455-.654H5.377ZM48.619,5.144h3.949V26.05a30.281,30.281,0,0,1-1.024,8.626,9.907,9.907,0,0,1-3.727,5.319,11.456,11.456,0,0,1-6.874,1.95q-5.874,0-8.8-3.5T29.22,26.05V5.144h3.924V26.025a23.635,23.635,0,0,0,.765,7.108,6.366,6.366,0,0,0,2.505,3.344,7.518,7.518,0,0,0,4.233,1.148q4.2,0,6.084-2.369t1.888-9.231ZM57.826,29.7l3.7-.395a10.771,10.771,0,0,0,1.345,4.652,7.559,7.559,0,0,0,3,2.678,9.4,9.4,0,0,0,4.393,1.012,7.937,7.937,0,0,0,5.442-1.715,5.672,5.672,0,0,0,1.937-4.455,5.428,5.428,0,0,0-.7-2.8,5.3,5.3,0,0,0-2.123-1.962,39.057,39.057,0,0,0-6.133-2.147,21.426,21.426,0,0,1-5.973-2.493,8.7,8.7,0,0,1-2.764-3.2,9.512,9.512,0,0,1-.987-4.381A9.631,9.631,0,0,1,61.8,7.316a10.443,10.443,0,0,1,7.651-2.789,12.233,12.233,0,0,1,5.788,1.308,9.3,9.3,0,0,1,3.85,3.752,12.345,12.345,0,0,1,1.469,5.751l-3.776.346a7.8,7.8,0,0,0-2.11-5.232,7.159,7.159,0,0,0-5.1-1.7,7.637,7.637,0,0,0-5.084,1.493A4.839,4.839,0,0,0,62.737,14.1a4.453,4.453,0,0,0,1.283,3.406Q65.3,18.719,69.8,19.953a37.973,37.973,0,0,1,6.17,2.1,9.931,9.931,0,0,1,4.1,3.641,10.132,10.132,0,0,1,1.382,5.393,11.235,11.235,0,0,1-1.456,5.664,9.786,9.786,0,0,1-3.961,3.887,12.694,12.694,0,0,1-6.035,1.333,11.783,11.783,0,0,1-8.774-3.307A12.6,12.6,0,0,1,57.826,29.7ZM87.542,41.327V5.144h3.924V41.327Zm10.662,0V5.144h4.023l15.6,28.408V5.144h3.752V41.327h-4.023L101.981,12.894V41.327Zm30.111,0V5.144h21.448v4.27H132.24V20.5h16.413v4.245H132.24V37.058h18.215v4.27ZM154.552,29.7l3.7-.395A10.771,10.771,0,0,0,159.6,33.96a7.559,7.559,0,0,0,3,2.678,9.4,9.4,0,0,0,4.393,1.012,7.936,7.936,0,0,0,5.442-1.715,5.672,5.672,0,0,0,1.937-4.455,5.428,5.428,0,0,0-.7-2.8,5.3,5.3,0,0,0-2.123-1.962,39.057,39.057,0,0,0-6.133-2.147,21.425,21.425,0,0,1-5.973-2.493,8.7,8.7,0,0,1-2.764-3.2,9.512,9.512,0,0,1-.987-4.381,9.631,9.631,0,0,1,2.838-7.182,10.443,10.443,0,0,1,7.651-2.789,12.233,12.233,0,0,1,5.788,1.308,9.3,9.3,0,0,1,3.85,3.752,12.344,12.344,0,0,1,1.469,5.751l-3.776.346a7.8,7.8,0,0,0-2.11-5.232,7.159,7.159,0,0,0-5.1-1.7,7.637,7.637,0,0,0-5.084,1.493,4.839,4.839,0,0,0-1.752,3.863,4.453,4.453,0,0,0,1.283,3.406q1.283,1.209,5.775,2.443a37.973,37.973,0,0,1,6.17,2.1,9.931,9.931,0,0,1,4.1,3.641,10.132,10.132,0,0,1,1.382,5.393,11.235,11.235,0,0,1-1.456,5.664,9.786,9.786,0,0,1-3.961,3.887,12.694,12.694,0,0,1-6.035,1.333,11.783,11.783,0,0,1-8.774-3.307A12.6,12.6,0,0,1,154.552,29.7Zm27.643,0,3.7-.395a10.77,10.77,0,0,0,1.345,4.652,7.559,7.559,0,0,0,3,2.678,9.4,9.4,0,0,0,4.393,1.012,7.937,7.937,0,0,0,5.442-1.715,5.672,5.672,0,0,0,1.937-4.455,5.428,5.428,0,0,0-.7-2.8,5.3,5.3,0,0,0-2.123-1.962,39.059,39.059,0,0,0-6.133-2.147,21.426,21.426,0,0,1-5.973-2.493,8.7,8.7,0,0,1-2.764-3.2,9.512,9.512,0,0,1-.987-4.381,9.631,9.631,0,0,1,2.838-7.182,10.443,10.443,0,0,1,7.651-2.789,12.233,12.233,0,0,1,5.788,1.308,9.3,9.3,0,0,1,3.85,3.752,12.345,12.345,0,0,1,1.469,5.751l-3.776.346a7.8,7.8,0,0,0-2.11-5.232,7.159,7.159,0,0,0-5.1-1.7,7.637,7.637,0,0,0-5.084,1.493,4.839,4.839,0,0,0-1.752,3.863,4.453,4.453,0,0,0,1.283,3.406q1.283,1.209,5.775,2.443a37.972,37.972,0,0,1,6.17,2.1,9.931,9.931,0,0,1,4.1,3.641,10.132,10.132,0,0,1,1.382,5.393,11.235,11.235,0,0,1-1.456,5.664,9.786,9.786,0,0,1-3.961,3.887,12.694,12.694,0,0,1-6.035,1.333,11.783,11.783,0,0,1-8.774-3.307A12.6,12.6,0,0,1,182.2,29.7Z" transform="translate(-12505 12229.243)"/>
    <line id="Line_4" data-name="Line 4" y1="46.335" x2="10.531" transform="translate(-12283.355 12229.5)" fill="none" stroke="#80d8ff" stroke-width="2.5"/>
  </g>
</svg>
