<svg xmlns="http://www.w3.org/2000/svg" width="69.68" height="12.84" viewBox="0 0 69.68 12.84">
  <path id="friends" d="M-30.8-.664a1.163,1.163,0,0,1-.664.918,1.1,1.1,0,0,1-.381-.02,2.648,2.648,0,0,1-.264-.1,1.208,1.208,0,0,0-.312-.1l-.215-.156a1.367,1.367,0,0,0-.1-.2,1.777,1.777,0,0,0-.137-.2A3.183,3.183,0,0,1-33.184-1a2.4,2.4,0,0,1-.039-.947,7.5,7.5,0,0,1,.2-.752q.039-.117.078-.244t.078-.244a1.767,1.767,0,0,1-.762-.781,2.69,2.69,0,0,1-.293-.977,1.425,1.425,0,0,1,.215-.6A1.362,1.362,0,0,1-33.35-5.9a1.9,1.9,0,0,1,.43-.215q.225-.078.439-.137l.254.1a1.611,1.611,0,0,0,.352.273.325.325,0,0,0,.186-.186,2.439,2.439,0,0,0,.088-.283q.059-.176.127-.352a2.855,2.855,0,0,1,.166-.352.94.94,0,0,1,.078-.469.634.634,0,0,0-.293-.117,1.174,1.174,0,0,1-.2-.039,1.481,1.481,0,0,1-.322-.3q-.088-.127-.166-.244a1.227,1.227,0,0,0-.293-.41l-.2-.137.1-.2a.132.132,0,0,0,.039-.1.376.376,0,0,0-.078-.176.53.53,0,0,1,0-.293l.039-.2a1.477,1.477,0,0,0,.156-.234l.176-.176q.391-.1.771-.225t.771-.264q.371-.117.752-.244t.771-.225a.732.732,0,0,1,.293-.127q.156-.029.293-.049.117-.02.215-.029a.174.174,0,0,0,.137-.068q.234-.078.547-.176.488-.137,1.289-.3a17.149,17.149,0,0,1,1.8-.264l.332-.02a.657.657,0,0,0,.2.01q.1-.01.2-.01.879,0,1.113.527a1.885,1.885,0,0,1,.313.215q.137.117.254.234a.853.853,0,0,0,.127.137.6.6,0,0,0,.107.078,1.08,1.08,0,0,1,.215.9.645.645,0,0,1-.449.293l-.215.117q-.215-.02-.322-.02h-.225q-.488,0-1.133.059t-1.318.166q-.674.107-1.3.264a10.163,10.163,0,0,0-1.094.332l-.352.176a.988.988,0,0,0-.156.342q-.02.127-.039.244a1.317,1.317,0,0,0-.029.156q-.01.078-.029.176a1.5,1.5,0,0,0-.332.977,2.462,2.462,0,0,0-.176.342.451.451,0,0,0,0,.264,1.384,1.384,0,0,0,.7.117q.332-.039.664-.1.449-.078.928-.137a8.111,8.111,0,0,1,.986-.059h.625l-.156.156.1.273q.117.059.166.078a.6.6,0,0,1,.107.059l.1.176a.409.409,0,0,1,.146.137.624.624,0,0,1,.088.293l-.8,1.133-.273.078a1.393,1.393,0,0,0-.586.078q-.137.039-.273.068a1.4,1.4,0,0,1-.293.029q-.391.078-.654.117l-.537.078q-.352.039-.684.107a3.675,3.675,0,0,0-.625.186h-.273a1.14,1.14,0,0,0-.322.049l-.3.088a.454.454,0,0,0-.137.166q-.039.088-.078.186a1.312,1.312,0,0,1-.215.449v.293a.98.98,0,0,0-.186.3,1.893,1.893,0,0,1-.068.205.6.6,0,0,0-.059.107.287.287,0,0,0-.02.107A.953.953,0,0,1-30.8-.664Zm9.512-1.367A10.708,10.708,0,0,1-21.67-.85a3.685,3.685,0,0,1-.5.83.4.4,0,0,0-.352.059,1.405,1.405,0,0,1-.215.176.408.408,0,0,1-.254,0,.7.7,0,0,1-.137-.088.951.951,0,0,0-.146-.1.558.558,0,0,0-.264-.049q-.039-.156-.088-.293t-.264-.1a.638.638,0,0,0,.02-.264,1.425,1.425,0,0,0-.049-.2,1.77,1.77,0,0,1-.049-.176.47.47,0,0,1,.02-.225q-.1,0-.156-.137a2.676,2.676,0,0,0-.137-.273q.059-.352.117-.664a4.815,4.815,0,0,1,.146-.586q.088-.273.146-.547a.959.959,0,0,0-.059-.566q.078.059.117-.029a.874.874,0,0,0,.059-.234,2.214,2.214,0,0,0,.02-.293,1.275,1.275,0,0,0-.02-.244,8.093,8.093,0,0,0,.322-1.045q.127-.537.234-1.064t.225-1.035a4.95,4.95,0,0,1,.313-.937.965.965,0,0,1,.479.049.5.5,0,0,1,.322.225,4.3,4.3,0,0,0,.9-.947q.391-.557.8-1.084a5.906,5.906,0,0,1,.908-.937,2.3,2.3,0,0,1,1.26-.488q.391.293.869.6a2.548,2.548,0,0,1,.791.791,1.416,1.416,0,0,1,.264.166,2.574,2.574,0,0,0,.264.186v.234a1.779,1.779,0,0,1,.381.5,5.14,5.14,0,0,1,.264.605l.234.645a4.768,4.768,0,0,0,.273.615.463.463,0,0,0-.039.166.418.418,0,0,0,.029.146,1.438,1.438,0,0,1,.049.156.585.585,0,0,1,0,.215A2.162,2.162,0,0,1-15.127-5.7a4.1,4.1,0,0,1-1.2.869,9.6,9.6,0,0,1-1.5.576,13.222,13.222,0,0,0-1.445.508q0,.078.068.078t.049.1q.469.293.742.469a4.832,4.832,0,0,0,.518.293,3.864,3.864,0,0,0,.527.205q.283.088.791.205t.791.186q.283.068.518.117t.479.078q.244.029.693.068a1.692,1.692,0,0,1,.3.42,1.607,1.607,0,0,1,.166.488,1.913,1.913,0,0,1,.02.469.623.623,0,0,1-.137.361.071.071,0,0,0,.088.049.38.38,0,0,1,.146.01.7.7,0,0,0-.2.2l-.156.234a1.08,1.08,0,0,1-.176.205.477.477,0,0,1-.273.107A2.637,2.637,0,0,1-15.84.615a16.85,16.85,0,0,1-2.324-.752q-.7-.273-1.143-.479a6.719,6.719,0,0,1-.762-.41,4.583,4.583,0,0,1-.586-.439Zm2.793-6.7a3.669,3.669,0,0,1-.479.566q-.264.254-.508.518a3.623,3.623,0,0,0-.439.586,2.2,2.2,0,0,0-.273.752,5.411,5.411,0,0,0,1.426-.381l1.406-.576a1.725,1.725,0,0,0-.42-.977A1.672,1.672,0,0,0-18.5-8.73Zm9.023,7.363a1.516,1.516,0,0,1-.068.918,1.123,1.123,0,0,1-.469.5A1.587,1.587,0,0,1-10.7.234,3.457,3.457,0,0,1-11.445.2,3.036,3.036,0,0,1-11.8-.488q-.156-.41-.293-.85t-.244-.869q-.107-.43-.186-.762a1.858,1.858,0,0,0,.127-.537q.029-.3.039-.615t.02-.635a6.043,6.043,0,0,1,.049-.615,9.153,9.153,0,0,1,.4-1.562,10.755,10.755,0,0,0,.42-1.543.524.524,0,0,0-.029-.332.425.425,0,0,1-.029-.293.153.153,0,0,1,.117-.107.157.157,0,0,0,.117-.127.767.767,0,0,0,.029-.352.517.517,0,0,1,.068-.332,5.152,5.152,0,0,0,.244-.459,1.127,1.127,0,0,0,.107-.635,2.178,2.178,0,0,0,.332-.273,3.237,3.237,0,0,1,.322-.283,2.082,2.082,0,0,1,.371-.225,1.152,1.152,0,0,1,.5-.1,1.01,1.01,0,0,1,.205.43l.1.469a1.937,1.937,0,0,0,.146.439.7.7,0,0,0,.332.322v.391q0,.234.02.459a1.578,1.578,0,0,0,.088.41.383.383,0,0,0,.225.244q-.352.938-.654,1.855a17.21,17.21,0,0,0-.5,1.846A12.1,12.1,0,0,0-9.6-3.262,8.118,8.118,0,0,0-9.473-1.367ZM3.691-11a.79.79,0,0,1,.01.205q-.01.068-.02.127a.773.773,0,0,0-.01.127.828.828,0,0,0,.039.205,2.239,2.239,0,0,1-.947.908A4.733,4.733,0,0,1,1.6-9.072q-.625.107-1.279.225a3.794,3.794,0,0,0-1.3.508.562.562,0,0,0-.459,0,1.158,1.158,0,0,1-.6.059.652.652,0,0,1-.293.166q-.176.049-.352.107a.778.778,0,0,1,.068.361.6.6,0,0,0,.049.3,8.5,8.5,0,0,0,1.514-.02q.83-.078,1.631-.1.02.1-.02.127t-.02.107a1.846,1.846,0,0,1,.273.244q.137.146.273.283a1.478,1.478,0,0,0,.283.225.542.542,0,0,0,.342.068,1.166,1.166,0,0,1,.107.342.713.713,0,0,1-.049.381q-.313.215-.625.439a5.174,5.174,0,0,1-.654.4,3.876,3.876,0,0,1-.723.283,2.707,2.707,0,0,1-.85.088h-.146a.236.236,0,0,1-.127-.059.655.655,0,0,1-.439.059.655.655,0,0,0-.439.059A1.153,1.153,0,0,0-2.744-4.5a1.538,1.538,0,0,1-.537-.068,6.759,6.759,0,0,0-.566.879,7.711,7.711,0,0,0-.449,1,6,6,0,0,0,1.1.078q.439-.02.83-.068l.8-.1A7.139,7.139,0,0,1-.527-2.812,2.589,2.589,0,0,1,.4-3.1a4.871,4.871,0,0,0,.986-.225.634.634,0,0,1,.273.205q.117.146.225.273a1.829,1.829,0,0,0,.225.225.374.374,0,0,0,.293.078.411.411,0,0,1,.107.186q.029.107.049.205a.425.425,0,0,0,.068.166.156.156,0,0,0,.166.049,2.942,2.942,0,0,1-.674.986A2.614,2.614,0,0,1,1.25-.43,6.129,6.129,0,0,1,.166-.156q-.6.1-1.318.234a.486.486,0,0,1-.293-.01A.707.707,0,0,0-1.719.02q-.449.1-1.074.176a8.215,8.215,0,0,1-1.27.059A5.783,5.783,0,0,1-5.293.088,2.009,2.009,0,0,1-6.25-.43a.639.639,0,0,1-.205-.322.434.434,0,0,0-.264-.283A5.314,5.314,0,0,0-6.8-1.6q-.059-.313-.117-.654T-7-2.93a2.035,2.035,0,0,1,.029-.605,1.225,1.225,0,0,1,.244-.527A.587.587,0,0,0-6.6-4.57a.135.135,0,0,0,.117-.107q.02-.088.156-.068.117-.352.254-.664t.283-.605q.146-.293.293-.6t.283-.674a1.611,1.611,0,0,1-.4-.557A3.075,3.075,0,0,1-5.8-8.447q-.059-.3-.1-.625a4.041,4.041,0,0,0-.137-.654,1.675,1.675,0,0,1,.479-.479,2.846,2.846,0,0,1,.615-.3,5.288,5.288,0,0,1,.723-.2q.391-.078.82-.176.781-.254,1.4-.391t1.211-.225q.6-.088,1.24-.166t1.465-.234a.493.493,0,0,0,.332.176q.078-.176.186-.107t.088-.107a1.858,1.858,0,0,0,.5.557A3.227,3.227,0,0,0,3.691-11ZM7.227-3.555a.353.353,0,0,0-.254.205q-.078.166-.146.342t-.137.322a.219.219,0,0,1-.205.146.563.563,0,0,1-.107.273q-.088.117-.166.244a1.02,1.02,0,0,0-.117.273.543.543,0,0,0,.039.342.511.511,0,0,0-.2.332q-.039.215-.088.41a.8.8,0,0,1-.166.332.5.5,0,0,1-.43.117q-.059.078-.02.1T5.293.02a.454.454,0,0,0-.322.029.631.631,0,0,1-.264.088,1.289,1.289,0,0,1-.615-.41,3.552,3.552,0,0,1-.43-.654q-.186-.361-.332-.732T3.047-2.3a.922.922,0,0,0,.02-.42.857.857,0,0,0-.137-.342Q3.887-5.1,5.02-7.4t2.148-4.551q.449.176.889.4a4.565,4.565,0,0,1,.8.518,3.021,3.021,0,0,1,.615.674,2.15,2.15,0,0,1,.332.85q-.039.117-.088.088t-.088.029a.479.479,0,0,1,.088.137.159.159,0,0,1,0,.078.463.463,0,0,0-.01.107.453.453,0,0,0,.059.186q-.078-.02-.107.02t-.127,0a.66.66,0,0,1,.049.352.9.9,0,0,1-.088.244,1.265,1.265,0,0,0-.1.234.563.563,0,0,0,.02.322.119.119,0,0,0-.088.029.388.388,0,0,0-.049.059.388.388,0,0,1-.049.059.081.081,0,0,1-.088.01A4.751,4.751,0,0,1,9.18-6.7q-.02.43-.029.869t.01.918a5.357,5.357,0,0,0,.137.986A3.3,3.3,0,0,0,10.42-4.98,6.166,6.166,0,0,0,11.1-6.426a10.378,10.378,0,0,0,.4-1.719q.137-.918.293-1.875a1.215,1.215,0,0,0,.273-.43q.1-.254.176-.537l.156-.566a2.849,2.849,0,0,1,.2-.518,1.09,1.09,0,0,1,.5.186,3.607,3.607,0,0,1,.381.313,4.28,4.28,0,0,0,.371.313,1.024,1.024,0,0,0,.488.186q.234.332.43.645a1.8,1.8,0,0,1,.254.664,1.214,1.214,0,0,0-.146.352q-.049.2-.107.391a1.637,1.637,0,0,1-.156.361.871.871,0,0,1-.273.283q-.059.508-.146.928t-.176.83q-.088.41-.146.85a5.735,5.735,0,0,0-.039.967l-.332.957q-.176.508-.273.918a1.824,1.824,0,0,0-.488.605q-.176.352-.371.7-.078.078-.1.039t-.137-.059a.176.176,0,0,1,0,.117.261.261,0,0,1-.049.068.158.158,0,0,0-.039.088.308.308,0,0,0,.029.156,1.547,1.547,0,0,0-.488.332,3.733,3.733,0,0,1-.459.391,1.389,1.389,0,0,1-.586.234,1.835,1.835,0,0,1-.889-.137A7.517,7.517,0,0,1,8.232-1.738,6.4,6.4,0,0,1,7.227-3.555ZM24.141-5.273q-.02.1-.039.166t-.039.127a.469.469,0,0,0-.02.146v.225a5.885,5.885,0,0,1-1.475,1.738,11.447,11.447,0,0,1-1.953,1.24A23.523,23.523,0,0,1,18.4-.654q-1.152.439-2.246.947A1.372,1.372,0,0,1,15.439-.1a1.875,1.875,0,0,1-.371-.635,3.618,3.618,0,0,1-.176-.8q-.049-.439-.088-.908a1.091,1.091,0,0,1,.166-.361.7.7,0,0,0,.107-.42q.156-.508.313-1a4.353,4.353,0,0,0,.2-1A.351.351,0,0,1,15.8-5.43a9.787,9.787,0,0,0,.01-1.9,10.127,10.127,0,0,0-.322-1.807,1.436,1.436,0,0,1,.049-.283q.029-.088-.01-.127-.02-.156.107-.156H15.9a1.692,1.692,0,0,0-.107-.586q-.107-.293-.205-.664a2.013,2.013,0,0,0,.176-.576,1.228,1.228,0,0,1,.176-.5,14.841,14.841,0,0,1,2.021.8,8.957,8.957,0,0,0,1.9.684q.7.508,1.445,1.006a9.318,9.318,0,0,1,1.348,1.094A5.649,5.649,0,0,1,23.672-7.09,4.294,4.294,0,0,1,24.141-5.273ZM19.512-4.2q.41-.156.811-.332a5.03,5.03,0,0,0,.742-.4,3.367,3.367,0,0,0,.615-.518,2.411,2.411,0,0,0,.449-.7,1.5,1.5,0,0,0-.312-.42q-.2-.186-.391-.352t-.381-.342a1.381,1.381,0,0,1-.3-.43,1.351,1.351,0,0,1-.449-.146q-.2-.107-.381-.215t-.391-.205a1.325,1.325,0,0,0-.479-.117,4.565,4.565,0,0,0-.771-.312,1.323,1.323,0,0,1-.518-.254.351.351,0,0,0-.215.059,13.122,13.122,0,0,1,.293,1.4,9.851,9.851,0,0,1,.107,1.309,10.409,10.409,0,0,1-.068,1.338q-.078.684-.215,1.484a1.278,1.278,0,0,0,.361-.088q.166-.068.332-.146T18.7-3.74a1.64,1.64,0,0,1,.439-.088.533.533,0,0,1,.166-.2A1.724,1.724,0,0,0,19.512-4.2Zm5.059-4.59a1.72,1.72,0,0,1,.439-.7,3.28,3.28,0,0,1,.664-.5,4.6,4.6,0,0,1,.752-.342q.391-.137.742-.234.781-.332,1.67-.635t1.816-.537a10.853,10.853,0,0,1,1.9-.3,5.856,5.856,0,0,1,2.051.244,1.383,1.383,0,0,0,.176.371q.117.176.244.352t.225.342a.856.856,0,0,1,.117.342,1.545,1.545,0,0,1,.313.381.729.729,0,0,1,.039.537q-.2.156-.381.283a2.647,2.647,0,0,1-.4.225,4.62,4.62,0,0,0-1.465-.117q-.742.059-1.328.1a.573.573,0,0,0-.42-.176,1.785,1.785,0,0,0-.508.078l-.527.156a1.1,1.1,0,0,1-.5.039,1.032,1.032,0,0,1-.479.205q-.283.049-.615.088-.02.1.039.127t.02.127a.644.644,0,0,0,.3.2q.186.059.391.117a1.673,1.673,0,0,1,.361.146.46.46,0,0,1,.215.283.926.926,0,0,1,.508.137,1.227,1.227,0,0,1,.352.332,1.479,1.479,0,0,1,.205.42,1.394,1.394,0,0,1,.068.4q.059.156.137.137t.176.078a1.2,1.2,0,0,0,.293.518A2.177,2.177,0,0,1,32.539-5q.039.488.059.869a1.811,1.811,0,0,1-.137.771A4.276,4.276,0,0,1,31.65-2.07a6.456,6.456,0,0,1-1.172,1.006,8.216,8.216,0,0,1-1.4.752,15.107,15.107,0,0,1-1.445.527.317.317,0,0,0-.156,0q-.078.02-.039-.1A.749.749,0,0,1,27.1.293a1.59,1.59,0,0,1-.4.029q-.215-.01-.439-.029a1.481,1.481,0,0,0-.42.02Q25.7.176,25.6.049a.886.886,0,0,1-.166-.322q-.1,0-.088-.1t-.068-.1q.117-.2.107-.225a.092.092,0,0,0-.059-.049.382.382,0,0,1-.088-.049.071.071,0,0,1-.02-.088.655.655,0,0,0,.059-.361q-.02-.205-.039-.42a1.223,1.223,0,0,1,.029-.41.489.489,0,0,1,.283-.312,3.852,3.852,0,0,0,1.26-.049,5.663,5.663,0,0,0,1.123-.361A11.167,11.167,0,0,0,28.936-3.3q.479-.273.947-.488a.8.8,0,0,1,.166-.293,2.318,2.318,0,0,1,.225-.215,1.674,1.674,0,0,0,.215-.215.68.68,0,0,0,.137-.293q.02-.137-.068-.166a.135.135,0,0,1-.088-.146l-.215-.059a4.13,4.13,0,0,0-.84-.361,4.751,4.751,0,0,1-.8-.322.5.5,0,0,1-.4.059,4.7,4.7,0,0,0-.479-.117q-.664-.039-1.279-.137a4.663,4.663,0,0,1-1.182-.352.764.764,0,0,0-.1-.176q-.059-.078-.215-.039-.117-.156-.234-.3a2.311,2.311,0,0,1-.215-.322q.039-.234.059-.4a.409.409,0,0,0-.117-.322q.078-.254.117-.41A1.071,1.071,0,0,0,24.57-8.789Z" transform="translate(33.926 12.129)" fill="#80d8ff"/>
</svg>
