<?xml version="1.0" encoding="UTF-8"?>
<svg id="uuid-9e827aad-91ad-42cf-916e-4c2427f4516e" data-name="Layer 2" xmlns="http://www.w3.org/2000/svg" width="2715.3129" height="489.22538" xmlns:xlink="http://www.w3.org/1999/xlink" viewBox="0 0 2715.3129 489.22538">
  <defs>
    <style>
      .uuid-941afbc5-0b63-4b4c-99b6-dbf3b4f9c1e9 {
        fill: url(#uuid-bb17df6f-8486-4be1-92ab-67f93f2b22fd);
      }
    </style>
    <linearGradient id="uuid-bb17df6f-8486-4be1-92ab-67f93f2b22fd" x1="1357.65645" y1="489.22538" x2="1357.65645" y2="0" gradientUnits="userSpaceOnUse">
      <stop offset="0" stop-color="#363636" stop-opacity="0"/>
      <stop offset="1" stop-color="#363636"/>
    </linearGradient>
  </defs>
  <g id="uuid-672bbd05-6000-4646-bf22-ccf6d0c46860" data-name="uuid-157a3032-3748-4ac4-865a-938eca7bbffd">
    <path class="uuid-941afbc5-0b63-4b4c-99b6-dbf3b4f9c1e9" d="m810.39431,486.71714c-1.48664.13774-2.99671.0215-4.49616.0215-266.06924-.00012-532.13841-.00009-798.20764-.00009H.91874c-.17334-.63087-.34667-1.26175-.52001-1.89262,1.26199-.53342,2.51423-1.49935,3.78759-1.52804,6.82739-.15375,13.66004-.07477,20.49087-.07483,26.6569-.00034,53.31396-.05666,79.97066.01607,25.64898.06995,51.29795.44096,76.94631.38766,83.45584-.17335,166.91141-.47112,250.36704-.73851,88.2862-.28279,176.5723-.71439,264.85871-.80962,30.80422-.03324,61.60855.82264,92.41429,1.11352,15.12917.14286,30.26767.15924,45.39055-.22059,9.2867-.23321,17.79726-3.64433,26.07285-7.80747,18.6094-9.36167,37.6933-17.62199,58.26572-21.6426,8.47517-1.65636,17.13326-2.37618,25.70568-3.54004.91458-.12417,1.81251-.37013,3.75558-.77654-5.96827-4.56464-12.09317-5.54332-18.21904-6.43082-15.77657-2.28564-31.21013.53802-46.55565,3.57044-20.05772,3.96359-39.94473,8.83149-60.05883,12.45926-31.16907,5.62162-62.71453,8.14539-94.34163,9.20887-29.61569.99585-59.24833,1.77339-88.87848,1.99944-61.29757.46764-122.59831.58647-183.89805.69143-43.14735.07388-86.29529-.20363-129.44276-.15186-33.1479.03979-66.29602.28237-99.443.5572-29.47514.2444-58.94827.73062-88.42341.97435-28.64204.23681-57.29898.8825-85.92313.2183-16.58726-.38485-33.12406-2.98598-49.67742-4.65085-.78976-.07943-1.5199-.75129-2.12147-2.25408,2.18631,0,4.3786-.10618,6.558.01644,22.25992,1.25232,44.51378,3.52391,66.77698,3.61347,44.29218.17829,88.58819-.95108,132.88444-1.32615,36.97107-.31304,73.94512-.48743,110.91715-.40922,28.14094.05955,56.28009.75126,84.42143.91284,45.63436.26209,91.27409.76885,136.90375.33997,46.94192-.44121,93.88934-1.44165,140.80637-3.02462,35.08695-1.18377,70.22491-2.66342,105.15932-5.93869,24.77182-2.32251,49.22905-7.93916,73.85047-11.93913,20.5205-3.33372,41.07615-6.45125,61.61417-9.67764,1.43941-.22611,2.86168-.56049,5.37334-1.05933-18.11465-11.53388-34.99409-22.84226-56.67329-23.09734-15.04405-.17701-29.48164,2.27851-43.44125,7.70379-36.2889,14.10348-73.80288,23.48978-112.29843,28.98688-41.81489,5.97117-83.89086,7.20163-126.06403,6.53459-32.30171-.51094-64.60526-1.16813-96.90902-1.2336-106.95728-.21678-213.91502-.2405-320.8726-.23605-30.48182.00125-60.96391.31707-91.44539.55186-19.31573.14881-38.63037.53217-57.94589.56214-6.52537.01012-13.05193-.7422-19.79529-2.26549.66101-.44935,1.28091-1.18673,1.99158-1.28806,1.4708-.20967,2.98989-.09002,4.48912-.09008,58.9784-.00152,117.9568.01372,176.9352-.00543,65.1421-.02116,130.28421-.05562,195.42626-.12078,28.98655-.02897,57.9732-.11258,86.95953-.23239,55.63329-.22998,111.26778-.35271,166.89908-.83005,23.63057-.20275,47.27145-.84073,70.87195-2.00441,8.15613-.4022,16.20421-2.99424,24.30159-4.58602-.03996-.52439-.07999-1.04878-.11995-1.57317-8.32404-.59971-16.64265-1.61763-24.9731-1.7257-33.30098-.43203-66.60538-.74611-99.90893-.78087-24.64558-.02571-49.29116.54131-73.93766.6764-31.81846.17439-63.63796.26965-95.45682.24144-60.95709-.05406-121.91448-.12847-182.87102-.36699-48.80044-.19095-97.59965-.67378-146.39983-.95541-25.98228-.14997-51.96651-.03802-77.94748-.28944-6.76532-.06547-13.52173-1.05024-20.24026-2.43652,1.58581,0,3.17163-.00229,4.75744.00034,43.31406.07138,86.62821.10938,129.94214.22605,33.30704.08971,66.61438.4781,99.92056.38062,63.79464-.18668,127.58852-.63773,191.38283-.95282,35.14491-.17357,70.29059-.47768,105.43501-.38522,33.6404.08852,67.28073.53058,100.91905.9749,25.63435.33857,51.26444.9888,76.89824,1.38012,24.26388.3704,48.24247-1.33514,71.07475-10.61918,1.34905-.54857,2.70232-1.08684,4.05363-1.62992-.0446-.45359-.08914-.9072-.13368-1.36079H.5594l-.1195-1.84596c1.95581-.13185,3.91356-.40156,5.86713-.37412,18.47469.25959,36.9567,1.06439,55.42125.76544,42.27552-.68442,84.53867-2.51706,126.8136-2.77442,91.11576-.5547,182.23579-.41705,273.35408-.55068,56.95907-.08352,113.91814-.15555,170.87721-.21348,53.47963-.05437,106.95926-.04309,160.43877-.15405,12.34137-.02561,24.39695-1.31047,36.25461-5.63583,17.2828-6.30431,35.43308-4.76788,53.41569-3.89215,4.7942.23346,9.62276.08447,14.42081-.16869,5.88701-.31063,10.75363-2.89822,15.0731-6.9282,14.72746-13.74061,29.44235-27.50018,44.41837-40.96772,18.6975-16.81419,41.41697-20.79169,65.59617-19.83722,23.31617.92041,41.87774,10.96235,58.93338,26.74606,14.31117,13.24403,31.53484,23.29024,46.86163,35.51329,7.79085,6.21313,14.37889,6.45278,23.2493,2.27393,16.48945-7.76819,33.62112-14.17443,50.48531-21.14767-.02221-.58712-.04454-1.1742-.06687-1.76131-6.47773,0-12.95681.0816-19.43307-.01366-33.69043-.49539-64.82429-10.2789-94.33412-25.98175-9.69018-5.15645-19.80025-9.61745-29.10312-15.38742-15.27358-9.47318-31.6803-13.38289-49.45291-12.78392-24.12581.8131-48.10196,3.41487-69.85004,14.36422-14.16596,7.13204-28.09811,15.63698-40.15114,25.86313-24.70153,20.95736-53.60166,30.8404-84.57042,36.64032-23.88011,4.47231-48.04052,4.2788-72.1728,4.28423-23.65095.00537-47.30221-.31576-70.95297-.52488-35.96993-.31813-71.93894-.77233-107.90942-.9698-46.46804-.25508-92.93742-.46453-139.40579-.40275-29.14122.03876-58.28165.61895-87.42262.94349-30.64058.34122-61.28064.84362-91.92213.96557-79.45859.31618-158.91783.46514-238.37686.65582-1.80567.00433-3.61206-.28938-5.41811-.44404-.02082-.64755-.04164-1.29514-.06246-1.94269,4.58684-.47316,9.17256-1.34216,13.76072-1.35527,29.98786-.08581,59.97665-.07077,89.96437.07218,45.96856.21909,91.9387.99066,137.90416.75312,55.44739-.28654,110.8887-1.67105,166.33624-2.03469,42.45773-.27843,84.92149.21553,127.38154.51421,20.47908.14405,40.95461.73327,61.43363.93446,25.81331.25358,51.62862.46847,77.44266.42318,31.97035-.05608,63.9451-.12231,95.9085-.70457,23.34314-.42517,45.64467-6.83803,67.84132-13.4315,2.86956-.85247,5.69921-1.85188,8.59353-2.60613,12.36303-3.2216,23.58237-8.44471,33.88067-16.29145,15.74826-11.99942,32.1648-23.12219,48.28061-34.64085,1.4421-1.0307,2.75973-2.23524,3.93844-3.66162-13.99634,4.88686-27.18774,11.19605-39.5055,19.50732-11.00562,7.42597-22.0479,15.04117-33.89226,20.92809-20.82209,10.34913-43.5418,15.19824-66.55675,15.79322-46.93778,1.21338-93.91332,1.05201-140.87416,1.26998-47.81124.2219-95.62357.20601-143.43529.31826-53.63375.12591-107.26741.37147-160.90116.38052-26.47831.00448-52.95632-.48707-79.43513-.60941-39.64772-.1832-79.29753-.06102-118.9436-.40132-35.95972-.30868-71.91444-1.30654-107.87387-1.48005-11.78268-.05687-23.56932,1.58653-35.3652,2.25851-1.45903.08309-2.98645-1.0332-4.48217-1.59372l.50664-2.63278c12.95466,0,25.90935-.02,38.86396.00396,32.31755.05983,64.63507.13051,96.95257.21299,128.93688.32908,257.87363.77453,386.81072.95642,78.6343.1109,157.27001-.01299,235.90334-.38897,24.80983-.11862,49.59964-1.50953,73.393-9.7718,1.50622-.52305,2.96419-1.18509,4.4446-1.78248-.05296-.5064-.10592-1.0128-.15888-1.51923-278.84593.55238-557.69186,1.10477-836.53779,1.65715-.23297-.7244-.46594-1.44876-.69891-2.17316,1.18339-.65484,2.36499-1.86972,3.55046-1.8735,7.65362-.02443,15.30794.33911,22.96228.34784,36.14612.04126,72.29236-.02211,108.43849.01189,36.7981.03461,73.59609.1621,110.39418.20778,49.48106.06141,98.96219.06998,148.44329.12612,47.47923.05388,94.9585.24324,142.43752.18323,51.80751-.06547,103.61515-.2842,155.42199-.55717,45.4681-.23958,90.93717-.50795,136.40149-1.09656,9.09982-.11783,18.22929-1.41714,27.24973-2.79506,4.80238-.73354,9.52215-2.61006,12.78926-7.88355-2.27096-.1428-3.84149-.32402-5.41257-.32847-56.30398-.15878-112.60789-.36647-168.91199-.43258-135.44658-.15899-270.89328-.33774-406.33992-.31832-42.80123.00613-85.60206.80856-128.4037.88183-29.80563.05102-59.61327-.7984-89.41818-.69866-15.46503.05175-30.92191,1.41208-46.39063,1.94421-8.13494.2799-16.28745.04949-24.43202.04949-.32523-.45819-.65046-.91635-.97568-1.37454.96831-.88561,1.81916-1.9987,2.9449-2.57935.79273-.40891,1.95904-.09993,2.95858-.10182,41.48205-.07864,82.96453-.0644,124.44605-.25739,50.46737-.2348,100.93353-.74281,151.40094-.95233,60.63552-.25172,121.2718-.40629,181.90778-.42657,43.80849-.01464,87.61704.28764,131.42565.39598,58.80819.14548,117.61674.16149,176.4245.39644,22.80635.09108,45.61032.69155,68.41661.94099,17.24454.1886,33.71502-3.60917,49.39885-10.59725,31.5983-14.0789,63.10929-28.35362,94.65157-42.55819.71147-.32045,1.36608-.76715,1.87157-2.14571-5.96791.53775-11.93014,1.15072-17.9047,1.60028-26.52709,1.99593-51.2066,11.44859-76.27067,19.16104-34.13063,10.5023-68.72973,18.82763-104.3276,21.70871-15.50824,1.25516-31.24943-.3643-46.88482-.68-31.45827-.63517-62.91459-1.42531-94.37573-1.84185-15.48347-.20497-30.97682.22952-46.46438.46337-42.45443.64112-84.90868,1.29632-127.36195,2.00877-36.62218.61459-73.24065,1.61751-109.86491,1.88811-32.62734.24108-65.27487.24632-97.8862-.64374-25.76076-.70311-51.46811-3.2019-77.22472-4.30911-8.23617-.35406-16.54712,1.65511-24.83597,1.78013-21.62073.32609-43.30425,1.21884-64.85942.02363-30.34975-1.68279-60.56066-.4026-90.81637,1.12809-.97942.04955-1.96353.00628-2.94546.00628-.07048-.41477-.14096-.82954-.21144-1.24427,7.17126-1.27288,14.31834-3.45582,21.51833-3.64695,21.11931-.56065,42.26146-.53701,63.39133-.35491,25.97227.22382,51.93968,1.07537,77.91184,1.23961,73.12265.46246,146.24638.84408,219.37022,1.00057,52.47673.11228,104.95453-.14045,157.43154-.31813,58.96627-.19967,117.93333-.3697,176.89741-.86436,11.44479-.09599,22.86584-1.95437,34.32051-2.35858,6.06809-.21409,12.21825.70656,18.27371,1.53563,24.44143,3.3465,48.08945-.5218,71.42137-7.51641,3.41416-1.0235,6.80238-2.13318,10.10147-3.815-283.9441,3.32744-567.7879,4.18177-851.74764-.26925,1.34105-.15119,2.68117-.42556,4.02328-.43572,46.96721-.35476,93.93419-.77745,140.9021-.99124,44.31378-.20177,88.6293-.37272,132.94275-.20635,51.96462.1951,103.92772,1.06537,155.8917,1.08885,44.96493.02034,89.93034-.71528,134.8952-1.1524,30.64149-.29792,61.28201-.70174,91.92369-.97511,24.14326-.21537,48.28921-.53738,72.43107-.37802,20.96974.13838,41.94052,1.4337,62.90172,1.23836,34.03051-.31713,67.79257-3.60255,100.76268-12.60992,9.57102-2.61482,18.97365-5.84548,28.34308-9.34783-14.30684-4.83139-28.86492-5.96059-43.48305-4.1145-27.89366,3.5226-55.63613,8.41007-83.59367,11.21135-27.12356,2.71767-54.42234,4.51366-81.67262,4.95331-44.46694.71744-88.95706-.10938-133.43724-.07254-41.47804.03434-82.9559.33671-124.43373.53659-42.13933.20311-84.28043.76553-126.41741.54134-40.79211-.21699-81.57906-1.69636-122.36994-1.77696-44.96252-.08889-89.92631.86082-134.89074,1.20561-23.29753.17863-46.59762.03711-69.89649.00427-1.60287-.00226-3.20532-.30563-4.80797-.46898-.07015-.49207-.14031-.98411-.21046-1.47617,1.62907-.29517,3.25622-.83509,4.88749-.8478,16.99052-.13292,33.98241-.10621,50.97257-.26742,42.79957-.40605,85.59848-1.23482,128.39758-1.23,36.27768.00412,72.55425,1.2808,108.83306,1.38244,60.95526.17076,121.91195-.13466,182.86797-.25998,22.65501-.04659,45.30998-.22193,67.96484-.21141,36.7994.01705,73.60825.69326,110.39581.07126,42.76468-.72314,85.56036-1.70502,128.24566-4.21894,24.00635-1.41385,47.8224-6.10747,71.70801-9.43885,2.3407-.32649,4.56821-1.46419,6.76754-3.29667-.67096-.21601-1.35278-.64947-2.01129-.61666-25.76199,1.28346-51.51172,2.87227-77.28458,3.86062-29.59348,1.13486-59.20434,2.29254-88.81283,2.44775-41.96291.21998-83.93058-.46841-125.89618-.76547-1.66589-.0118-3.33209.01235-4.99811.01326-74.80517.04056-149.61037.06227-224.41551.12612-58.30849.04976-116.61691.20726-174.92535.21357-48.14635.00521-96.29279-.11426-144.43893-.26127-4.77171-.01458-9.54166-.60669-14.37346-2.05817,1.16082-.22486,2.31455-.59001,3.48376-.64908,3.99084-.20147,7.98665-.39571,11.98141-.41455,36.47695-.17201,72.95401-.40891,109.43117-.43407,162.77123-.11234,325.54252-.14201,488.31379-.24635,39.9756-.02561,79.96225.3249,119.92357-.49002,39.92966-.81429,79.83931-2.74637,119.74767-4.42733,29.10159-1.22576,58.21539-2.4182,87.27226-4.38562,37.12148-2.51355,73.54431-9.54478,109.45219-19.14427,19.91166-5.32313,39.68726-11.15525,59.5174-16.78184,1.55082-.44005,3.04796-1.06827,4.76181-2.93673-8.15668-2.24815-16.22429-4.91551-24.48579-6.67025-31.83783-6.76224-64.10593-7.42174-96.43406-5.61495-17.0867.95495-34.22551,2.18802-51.14131,4.65996-18.36693,2.68401-35.55504,9.72811-52.2318,17.79525-31.40556,15.19199-64.60764,23.89242-99.33504,25.68688-26.40446,1.36445-52.8972,1.14862-79.35297,1.35832-25.32246.20071-50.64784.01162-75.97183.04842-168.09301.24437-336.18603.49997-504.27903.76019-39.81609.06163-79.63213.18192-119.44821.19064-3.90007.00085-7.80026-.59529-11.70039-.91434.01876-.43572.03751-.87143.05627-1.30718,5.94701-.30609,11.8921-.8256,17.84139-.87933,19.989-.18058,39.97949-.19811,59.96942-.27264,68.96194-.25712,137.92387-.51085,206.88581-.76834,19.49-.07282,38.97996-.16164,58.46999-.23007,73.79333-.25892,147.58654-.58971,221.38009-.74111,49.80757-.10218,99.61594-.00967,149.42358.11898,21.47334.05547,42.95419.8908,64.41624.50841,19.16718-.34152,38.1271-3.08707,56.59251-8.56482,2.3363-.69302,4.64021-1.49517,6.90262-2.79262-277.86491-1.17304-555.67994.14655-833.48675-1.30904-.04141-.50381-.08282-1.00759-.12424-1.51139,1.2844-.11606,2.56879-.3335,3.85321-.33369,114.29146-.01549,228.58293-.04193,342.8744-.00677,126.28367.03885,252.56801.38403,378.85059.05022,36.4396-.09633,72.8742-2.07384,109.31112-3.18842,16.15919-.49426,31.29293-4.65112,46.32704-10.72221,32.82673-13.2561,66.08537-25.44379,99.16512-38.0742,1.6183-.61791,3.21416-1.29486,5.70702-2.30275-7.05375-2.93623-12.91837-2.01113-18.9119-.32983-41.45461,11.62873-82.94486,23.13045-124.40368,34.7443-22.95803,6.43122-46.49318,8.42047-70.15273,8.45737-114.29117.17826-228.58284.10441-342.87428.07114-66.97222-.01949-133.94453-.09898-200.91666-.2165-24.98236-.04385-49.96468-.43325-74.94647-.38318-49.63596.0995-99.27145.43197-148.90742.54839-4.72496.0111-9.45189-.82338-14.17791-1.26531.01661-.45169.03322-.90339.04983-1.35505,4.49835-.27157,8.99664-.77959,13.49505-.78059,179.9341-.03998,359.86822-.09255,539.8023-.00345,66.13113.03275,132.26268.65731,198.39308.53214,31.96877-.0605,64.04565-1.03405,95.36896-7.98056,20.39213-4.52233,40.29086-11.28864,60.3731-17.17754,11.64503-3.41477,23.22172-7.06322,34.81404-10.65554,1.98694-.61572,3.89744-1.4779,5.65418-3.36977-9.67273.54523-19.35699.9378-29.01605,1.66464-27.88262,2.09813-55.767,4.19012-83.6282,6.54947-29.18408,2.47136-58.67554,3.37294-87.40898,8.47191-24.21446,4.29703-46.92362.48335-70.14065-3.73774-23.45858-4.26502-46.78921-4.36647-70.43546-.01842-14.45668,2.65829-29.4573,2.54557-44.23411,3.24349-37.07444,1.75102-74.15712,3.34069-111.24331,4.82475-20.45632.81859-40.93073,1.91439-61.38918,1.77211-27.78951-.19328-55.56773-1.84549-83.35822-2.12005-19.6281-.19392-39.26666.95559-58.90385,1.33641-36.61393.71006-73.22959,1.33891-109.84579,1.92214-28.94674.46109-57.89884,1.25391-86.84189,1.03172-17.77461-.13644-35.53702-1.90103-53.30272-2.97084-.57807-.03479-1.13214-.46787-1.6974-.71529.01284-.47513.02569-.95026.03853-1.42539,2.20407,0,4.41302-.09621,6.61142.01537,16.45361.83493,32.89797,1.94976,49.36124,2.44428,5.7484.17267,11.87102-.17704,17.24844-1.99006,12.46102-4.20135,24.99971-2.43895,37.57684-2.14124,28.45285.67347,56.91099,1.89503,85.36052,1.73658,33.61576-.18724,67.22394-2.21423,100.83695-2.25726,23.10498-.02959,46.20291,2.42706,69.32192,2.90671,19.95144.41396,39.96523.27485,59.88494-.82389,27.7418-1.53019,55.42274-4.16879,83.12662-6.37192,3.79555-.30184,7.57328-.8278,11.33923-2.08686-172.34661.00006-344.69323.00003-517.03985.00002-.02812-.83079-.05623-1.66156-.08434-2.49233,1.51806-.11289,3.03566-.31751,4.55425-.32506,27.15297-.13521,54.30597-.27151,81.45913-.35756,51.63813-.16366,103.27627-.35511,154.91458-.42834,106.79053-.15146,213.58116-.26149,320.37178-.32407,28.1529-.01648,56.30593.18729,84.45883.3178,26.80733.12427,53.62356.77379,80.41899.2784,22.31093-.4125,44.49134-2.89244,66.0268-9.33316,1.0479-.31339,2.05034-.77855,2.95394-2.23164H3.63726c-.03456-.51434-.06912-1.02869-.10367-1.54303,4.92393-.38807,9.84279-1.01089,14.77281-1.11742,11.82257-.25544,23.65031-.27756,35.47613-.37391,3.99827-.03258,7.99702-.00281,11.99556-.00563,109.95698-.07724,219.91408-.08215,329.8709-.25488,94.62027-.14862,189.24052-.42364,283.86024-.77344,43.30373-.1601,86.61612-.20865,129.9035-1.21486,13.67676-.31792,27.28518-3.57807,41.11715-5.51865-.74613-3.9556-2.70299-5.17891-5.79122-5.05-1.82935.07637-3.66474.00948-5.49738.00948-276.89859-.00023-553.79714.00073-830.69572-.01641-2.35068-.00014-4.70135-.24423-7.05202-.37443-.04204-.5037-.08408-1.00742-.12612-1.51112,1.9292-.39565,3.85675-1.12602,5.78786-1.1355,20.62923-.10154,41.2594-.17813,61.88857-.08883,41.13255.17803,82.26502.70829,123.39683.64495,52.79815-.08129,105.5952-.74803,158.39344-.88419,33.98063-.08764,67.96237.36136,101.94389.50559,59.13125.25099,118.26293.68247,177.39399.61488,70.45816-.08053,140.91613-.55714,211.37344-.97929,15.33862-.09188,30.37822-2.03938,45.34796-6.02388,9.32099-2.48097,19.42233-2.32035,29.19952-2.74057,19.95016-.85745,40.13118.26537,59.81325-2.40377,16.78103-2.27572,33.04381-8.55757,49.44217-13.38533,8.26211-2.43244,16.31629-5.57113,24.46443-8.39049.04491-.46465.08981-.92932.13484-1.39399-7.4892-1.23349-14.94326-2.76837-22.47432-3.64187-19.63197-2.27708-38.73539,1.64023-57.92869,5.06816-39.62075,7.07627-79.21203,14.45438-119.03108,20.21944-16.50226,2.38921-33.55699,1.02617-50.36212,1.24366-11.64491.1507-23.29256.0755-34.93893.11964-48.64284.18435-97.28574.3692-145.92858.56614-50.96962.20638-101.94297.90112-152.90793.50829-51.44028-.39649-102.87177-2.61229-154.30796-2.64391-46.60278-.02866-93.20266,2.13042-139.81147,2.72337-34.80989.44284-69.63229-.20097-104.44849-.11252-20.78977.05281-41.57815.59675-62.36778.87348-1.32461.01764-2.65457-.36659-3.98204-.56385-.00584-.54356-.01169-1.0871-.01754-1.63065,3.25586-.33495,6.50975-.9398,9.76787-.96343,35.78756-.25956,71.57678-.3215,107.36356-.65246,35.29834-.32643,70.59567-.82272,105.89105-1.39252,24.138-.38967,48.27016-1.34446,72.40814-1.48181,28.12441-.16006,56.25364.18125,84.37836.51251,36.62844.43143,73.25294,1.26957,109.88205,1.55192,30.48387.23498,60.97216-.04507,91.45825-.16539,15.48505-.06111,30.96944-.36731,46.45443-.40053,68.97103-.148,137.94463.05713,206.91242-.48005,31.53497-.24561,62.63729-5.14276,93.39434-12.06463.61965-.13943,1.18719-.51052,3.08096-1.35216-5.44033-1.41055-9.72746-2.584-14.04662-3.6247-4.36223-1.05107-8.73954-2.05409-13.13887-2.93489-48.09598-9.62903-96.28556-8.6225-144.5223-1.18486-20.70812,3.193-41.37231,6.70277-62.12972,9.53075-9.03746,1.23127-18.25919,1.53278-27.39769,1.53797-155.27471.08809-310.54954.05341-465.82432.06866-51.48033.00506-102.96066.07593-154.44098.11311-11.98918.00866-23.97902.07145-35.96709-.04327-3.12736-.02993-6.24922-.6336-9.41137-2.1499,3.93643-.25107,7.87218-.70836,11.80939-.7213,39.64922-.13018,79.29865-.21964,118.94807-.25962,157.26723-.15856,314.53453-.24452,471.80161-.49108,25.61776-.04016,51.29714.2099,76.83266-1.4492,22.18737-1.44156,44.17682-5.70873,66.3171-8.15365,23.96376-2.64627,47.96279-5.23118,72.01551-6.75146,32.09494-2.02859,63.75041,2.0301,95.09935,8.98209,18.71227,4.14969,37.40879,2.28351,56.02893-1.26588,34.59329-6.59423,69.47274-10.49277,104.7218-9.19879,28.60025,1.04992,57.16096,3.14211,85.75718,4.35056,13.09433.55336,26.23161.09412,38.94558.09412-1.79402-.78784-4.26846-1.90106-6.76352-2.96592-16.36291-6.98357-32.74095-13.93178-49.07652-20.9788-1.36534-.58902-2.4532-1.82064-3.66992-2.75374,20.39122,6.5615,40.74363,13.24816,61.20867,19.57091,3.7496,1.15845,7.95668.83734,11.95266,1.19919l-.7252-1.76043c1.77267-2.38269,3.36461-4.93341,5.37608-7.09402,1.56425-1.68031,3.70214-2.81287,5.49665-4.2958,5.93167-4.90176,5.55522-7.90642-1.54228-11.07795-9.6205-4.29889-19.86041-5.99804-30.2249-4.94864-17.35229,1.75691-34.631,4.24641-51.92801,6.52329-.67297.08858-1.21562,1.16714-1.81891,1.78441-5.41086-2.11429-11.02904-3.8164-16.1972-6.4131-24.2803-12.19925-48.62746-12.81167-73.71911-2.22263-15.75937,6.65075-32.21233,11.6465-48.05425,18.11835-30.28097,12.37061-60.28769,11.93008-90.32381-.51052-11.36907-4.70893-22.85162-9.16898-34.0609-14.23247-16.54222-7.47255-32.98683-7.35585-50.00025-1.53138-29.58744,10.12914-59.52039,19.12624-90.29996,25.02721-2.59396.4973-4.82215,1.27381-5.95943-2.22666-.28048-.86326-1.94015-1.60182-3.06827-1.79275-1.78261-.30178-3.65192-.09855-5.4845-.09855-238.4124-.00091-476.8248.00006-715.23721-.01451-2.37998-.00015-4.75996-.20555-7.13994-.31515-.03381-.56409-.06762-1.12817-.10142-1.69226,3.42813-.3534,6.85282-.97067,10.28497-1.01532,16.32192-.2124,32.64576-.33753,48.96913-.36596,29.98889-.05227,59.97796.00372,89.96692-.01796,192.25312-.139,384.50626-.29699,576.75938-.41884,23.72679-.01503,46.51935-5.06898,69.05492-11.99716,32.09342-9.86658,64.28189-19.42419,96.42583-29.12663,1.08591-.32778,2.12984-.79443,3.58395-1.344-6.87377-1.10329-28.37359,1.42058-38.27816,4.67893-41.56145,13.67276-84.40618,20.56267-127.93315,22.21017-47.73784,1.80688-95.53656,2.65977-143.31046,2.73004-121.44355.17863-242.88799-.35506-364.33222-.51202-45.64677-.05899-91.29643-.12877-136.93985.31403-26.62092.25823-53.23146,1.54436-79.84907,2.28131-1.84599.05111-3.71201-.62063-5.56872-.95619.07193-.57307.14386-1.14616.21579-1.71923,1.05613-.1866,2.10906-.51535,3.16887-.53921,35.61875-.80182,71.23494-1.99184,106.85812-2.26639,78.78658-.60722,157.57655-.7927,236.36546-1.06971,46.14665-.16225,92.29395-.25697,138.44078-.21617,30.98249.02741,61.9645.38565,92.94712.52357,41.47609.18462,82.95432.59673,124.42809.33899,27.44845-.17057,54.9512-.75194,81.80831-7.62259,5.09207-1.30266,10.09988-2.93446,15.0285-5.51975-1.35168-.10718-2.70317-.30684-4.05497-.30835-83.29825-.09357-166.59667-.31555-249.89455-.18891-41.79928.06355-83.59794.73656-125.39627,1.18726-25.8087.27827-51.61606.67946-77.42448.98536-41.79317.49537-83.5862,1.00781-125.38022,1.41677-28.62449.2801-57.25131.61497-85.8757.51778-23.11624-.07848-46.23775-.53689-69.34258-1.27547-12.45391-.39811-24.8673-1.93987-37.31881-2.58008-7.73624-.39777-15.50961-.07385-23.26632-.07385-.10029-.40496-.20057-.80991-.30086-1.21486,1.52816-.28522,3.05992-.83588,4.58394-.81523,18.31302.24798,36.62391.73717,54.93731.85167,23.15559.14478,46.31333.07771,69.46948-.03513,28.80184-.14035,57.60369-.66727,86.40433-.58841,56.29635.15414,112.59154.78069,168.88783.89727,54.12466.11209,108.25075-.05075,162.37508-.32143,45.79976-.22904,91.598-.77284,137.39667-1.20041,32.47273-.30316,64.94608-.56742,97.41735-.98966,36.77005-.47812,72.26145-7.98245,107.14999-19.22369,16.38066-5.27794,32.39622-11.05242,47.18793-21.49097-1.48212-.85257-2.74112-1.70823-4.10391-2.34055-14.85217-6.89131-30.35955-6.34649-45.45193-2.11304-23.82581,6.68319-47.31764,14.55793-70.94053,21.96142-23.13417,7.25033-46.9069,11.06413-70.97671,13.34636-45.69793,4.33296-91.51496,2.65197-137.29283,2.66313-31.80782.00776-63.61539-.64141-95.42363-.70345-84.79953-.16538-169.59936-.25533-254.39901-.21183-53.80756.02761-107.61504.33288-161.42243.54239-28.30964.11024-56.61896.31241-84.92865.38959-3.68822.01006-7.3778-.47961-11.06675-.73781.01581-.54034.03161-1.08068.04741-1.62102,7.11067-.29677,14.22055-.82526,21.33215-.84965,28.6558-.09823,57.31214-.02791,85.96827-.04305,125.95031-.06654,251.90061-.13803,377.85094-.21447,47.64845-.02892,95.29684-.05694,142.9453-.12206,28.15376-.03847,56.31136.11347,84.45999-.30382,25.83789-.38305,51.52216-2.45989,76.35187-10.46032.88481-.28508,1.74301-.65258,3.68719-1.3875-19.08969,0-36.98079.09659-54.87048-.01798-55.2958-.35416-110.59093-.82693-165.88673-1.18012-44.30361-.28298-88.60856-.72951-132.91171-.61788-64.79193.16326-129.58236.93279-194.37432,1.09301-27.78492.0687-55.57228-1.09492-83.35811-1.07628-43.63233.02926-87.26421.76587-130.89649.78872-10.58595.00555-21.17274-1.60546-31.75915-2.47313.00528-.47877.01057-.95753.01585-1.43629,3.88019-.30211,7.76058-.86545,11.64054-.86247,19.98853.01532,39.97688.18887,59.96542.28294,33.14593.156,66.29251.48296,99.4378.38663,34.63956-.10067,69.27779-.86509,103.91678-.87722,31.95364-.01119,63.90694.77658,95.86137.86402,26.14412.07154,52.29357-.75665,78.43357-.49153,37.12582.37656,74.24217,1.66158,111.36793,2.07085,62.94315.69389,125.88996,1.09894,188.83634,1.42043,17.47706.08925,34.96425-.35794,52.43302-.95928,5.24686-.18062,10.59659-1.21183,15.64338-2.7128,25.17828-7.48826,50.27164-15.26173,75.39342-22.93966,1.25924-.38482,2.50476-.81456,4.4349-1.44489-1.29225-.65476-2.00836-1.14583-2.80043-1.39893-7.27529-2.32456-14.76089-4.12418-21.81062-6.99571-19.59799-7.98271-39.2764-8.37864-59.62051-2.98328-26.18902,6.94541-52.47499,13.61375-78.93052,19.44336-31.01288,6.83384-62.59617,8.33313-94.31002,8.30149-130.28367-.13-260.56753-.07469-390.85132-.04346-46.6467.01118-93.29338.20629-139.94007.20407-28.98485-.00139-57.97079-.11372-86.95353-.42667-5.31498-.05739-10.61696-1.31804-15.92494-2.02326.04531-.6478.09062-1.29559.13593-1.94338,11.05886,0,22.11777.02289,33.17657-.00362,87.78985-.21048,175.57962-.47963,263.36957-.6246,38.4832-.06355,76.96691.07458,115.45014.20225,67.96246.22547,135.92452.61066,203.88707.71715,21.3036.03337,42.64949.09933,63.9019-1.13008,26.3163-1.52236,51.88262-7.52003,76.821-16.96553-3.30671,0-6.61379-.03166-9.92001.00867-3.49646.04264-6.99329.11791-10.4878.2411-18.29665.64504-36.58878,1.45374-54.88964,1.9352-30.12105.79242-60.24498,1.75268-90.37244,1.96972-58.13027.41876-116.26393.50319-174.3961.48247-99.12159-.03532-198.24313-.25046-297.36465-.40919-24.32179-.03895-48.64858-.48406-72.96328-.10888-15.11686.23325-30.21325,1.69597-45.32432,2.50427-2.24596.12014-4.52221-.32536-6.78444-.50918-.15123-.61168-.30246-1.22337-.45369-1.83506,1.42511-.48698,2.84165-1.36888,4.27664-1.39996,14.6481-.31724,29.29864-.62186,43.94959-.68708,28.98794-.12904,57.97657-.09896,86.9649-.14446,46.64667-.07322,93.29346-.11398,139.93999-.24112,81.9581-.22339,163.91644-.41069,245.87384-.79365,43.96645-.20544,87.94175-.32576,131.89368-1.32853,43.75797-.99835,87.51033-2.68376,131.22528-4.86583,13.37718-.66773,26.6346-3.89761,39.92563-6.08289,17.018-2.79807,33.80562-2.60461,50.23344,3.32939,21.17139,7.64746,43.22179,9.15306,65.43351,8.88128,36.56511-.44741,72.5778-5.9927,108.47543-12.42544,15.74265-2.82102,31.42795-2.85527,47.05638.96612,37.35522,9.13387,75.3484,11.0249,113.57854,9.47037,23.07505-.93828,44.08067-8.81266,64.38488-19.50224,14.09799-7.4222,28.80537-13.76947,43.53106-19.89948,23.1562-9.63939,46.30373-8.78888,69.24711,1.34212,15.20928,6.71585,30.32203,13.76729,45.91654,19.47011,34.43625,12.59312,68.79501,11.95736,102.56451-2.93614,10.95363-4.83088,21.97304-9.56806,32.63527-14.99083,18.37755-9.34684,36.88347-9.58924,56.05395-2.77381,27.5673,9.80078,55.16987,19.52451,82.95108,28.69482,20.0061,6.60387,40.87457,10.20543,61.82002,10.47299,67.27506.85938,134.56256.83667,201.84567.92405,30.97609.04022,61.95254-.5311,92.92949-.68645,33.65126-.16875,67.30325-.14275,100.9545-.26584,22.98329-.08407,45.96682-.47687,68.94888-.38134,46.63552.19385,93.26933.66521,139.90436.94888,61.29592.37285,122.59233.83215,183.88875.95437,43.47749.0867,86.95596-.32674,130.43395-.50688,6.89909-.02859,13.79793-.00401,20.69701-.00401.09152.53835.18304,1.07669.27456,1.61504-.85272.40793-1.67175,1.0321-2.56644,1.1725-1.30128.20416-2.65747.06327-3.99024.06328-55.64638.00062-111.29252-.03407-166.9389.0078-113.6215.0855-227.24324.20294-340.86474.32611-49.64491.05381-99.28983.10995-148.93474.24317-80.79098.2168-161.58295.30449-242.3721.82442-48.1944.31016-94.61466-8.1255-139.5168-25.58871-15.94851-6.20276-32.21489-11.60483-48.41758-17.13386-11.06455-3.77559-22.26712-4.00814-33.19988.57894-25.14558,10.55026-50.23235,21.24016-75.3379,31.88572-.55729.23634-1.05198.62001-2.76949,1.65241,2.96315.19395,4.67139.36282,6.38304.40931,31.11739.84534,62.23747,1.60772,93.35206,2.54574,11.29189.34042,22.56681,1.26202,33.85894,1.58124,5.13472.14515,10.28932-.605,15.44039-.81957,21.91141-.91272,42.93241,4.22999,63.9656,9.38144,22.87932,5.60362,46.07871,8.61898,69.68031,8.61384,190.43005-.04134,380.85998-.00993,571.29004-.0283,108.62601-.01047,217.25202-.07736,325.87803-.09677,5.32837-.00095,10.6587.15312,15.98365.35353,1.87261.07047,3.73203.49666,5.59732.76042.00561.4077.01098.8154.0166,1.22311-.96596.27265-1.92068.71914-2.89982.78152-1.99146.12684-3.99585.05053-5.99512.05053-300.22312.00064-600.44624-.00303-900.66923.05136-3.0809.00056-7.49677-1.67615-7.72422,4.5813,11.07432,1.08491,22.10617,2.1806,33.14119,3.2442,56.34937,5.43115,112.84932,2.2706,169.28191,2.91019,20.48957.23222,40.98439.03982,61.47677.01521,57.97609-.06962,115.95243-.09242,173.92828-.24558,72.79391-.19231,145.58734-.47591,218.381-.75827,47.80452-.18544,95.60856-.5091,143.41333-.63901,39.48018-.10728,78.96084-.01981,118.44127-.02356,2.87004-.00027,6.04637-.41032,5.09628,4.50431-12.43807,0-24.85833.13437-37.27469-.03002-21.11849-.27958-42.23332-.95726-63.35206-1.09268-45.9612-.29473-91.92387-.44965-137.88605-.47719-35.30422-.02115-70.60892.20164-105.91289.38944-21.48579.11429-42.97109.43858-64.45688.54399-40.30385.19772-80.60843.5052-120.91204.40615-72.29214-.17765-144.58355-.81032-216.87582-.87399-34.80098-.03065-69.60355,1.18544-104.40429,1.13514-35.25797-.05097-69.91545-5.4342-104.25395-13.29303-12.29848-2.81466-24.87578-4.41962-37.33936-6.49589-1.58414-.26388-3.25015-.03607-5.78658-.03607,1.6316,1.16379,2.56229,1.97401,3.61806,2.55826,11.20427,6.20038,22.30958,12.59407,33.67432,18.48703,18.431,9.55715,38.57158,10.98375,58.78805,11.20202,33.97646.36683,67.95718.51452,101.93571.46709,132.27068-.18462,264.5416-.47871,396.81227-.74048,29.98609-.05935,59.97219-.12589,89.95828-.23522,65.29739-.23808,130.59429-.56582,195.89192-.73213,26.31434-.06702,52.63039.13094,78.94449.33372,10.98475.08465,21.96681.48914,32.94937.7736.7629.01977,1.52068.25143,2.5086,1.50564-1.36986.32487-2.73533.90858-4.11056.93334-10.32459.18591-20.65162.35567-30.97767.35748-125.62052.02204-251.24105.0427-376.86157-.00079-45.14607-.01563-90.29215-.30046-135.43822-.29029-59.62222.01344-119.24493.07221-178.86629.34605-46.30019.21267-92.59941.70999-138.8974,1.22528-26.83686.2987-53.57097-.49384-79.90105-6.32017-16.90543-3.74088-32.32618-10.4144-46.56072-20.7139-12.1285-8.77565-27.04589-11.61173-41.65321-14.29054-13.01916-2.38757-25.50019.36867-37.79988,4.32145-9.65382,3.10241-19.25723,6.36152-28.87346,9.57973-1.01001.33801-1.95485.87036-4.06223,1.82595,19.11849,2.93957,36.97877,5.68408,54.83833,8.43235,9.04369,1.39165,18.24759,2.15159,27.08066,4.37899,7.63698,1.92579,15.3961,4.59982,22.14058,8.57274,13.88652,8.18007,28.78792,12.28068,44.58573,12.95127,15.58621.6616,31.21636.25502,46.82637.40462,16.31568.15635,32.63124.65018,48.9451.58429,35.63942-.14397,71.27835-.48112,106.91607-.86779,32.303-.3505,64.60282-.98859,96.90606-1.28927,47.29909-.44028,94.59941-.91242,141.89972-.967,53.97243-.06227,107.94535.28285,161.91778.51998,35.14168.15438,70.28384.68092,105.4243.58465,35.63613-.09764,71.27006-.83618,106.90618-1.14421,30.3058-.26197,60.61575-.59613,90.91911-.336,15.62636.13414,31.24271,1.4838,46.862,2.31804,1.06724.05702,2.11934.39807,3.17828.60704l.12666,1.47467c-3.07602.35954-6.16425,1.1104-9.22636,1.0172-26.28481-.80003-52.55913-2.13062-78.84834-2.53997-20.96938-.32651-41.95437.53445-62.934.65739-49.6249.29083-99.25029.50056-148.87593.65452-27.47115.08523-54.94302-.04124-82.41441-.01455-96.96109.09424-193.92218.20356-290.88327.33041-22.82209.02985-45.64967-.13983-68.46505.29511-37.94778.72344-75.88385,2.10716-113.83297,2.7031-14.959.23491-29.93753-1.19251-44.91105-1.29825-9.10714-.0643-18.54107-.33834-27.24943,1.81753-10.06663,2.49217-19.32728,1.39937-28.88164-1.06617-3.49896-.90295-7.06223-1.55765-10.7047-1.96283,7.42953,5.77324,16.17621,8.68244,25.19488,9.45662,19.03942,1.63444,38.15583,3.08381,57.25077,3.22201,48.80282.35319,97.61124-.05379,146.41735-.15518,1.1662-.00242,2.33228.01844,3.49848.01935,50.81392.03977,101.62772.09245,152.44164.11484,177.43213.07821,354.86401.12938,532.29613.24775,14.8166.00988,29.63344.41078,44.44809.72674,1.90482.04061,3.79695.66755,5.69494,1.02286-.0554.48267-.11104.96533-.16644,1.448-1.72251.08925-3.44503.25652-5.16754.25665-156.94231.01195-313.88462.10108-470.82693-.03474-59.96365-.0519-119.92632-.78591-179.88997-.90542-54.80343-.10921-109.60771.16517-164.41138.32247-28.80708.08268-57.62844.89885-86.41637.22864-24.14314-.56207-48.18744-3.2715-70.90142-12.46347-5.67126-2.29502-11.68823-4.64553-16.29848-8.47251-11.79695-9.79294-25.97035-12.93254-40.1839-16.51117-22.65345-5.70364-44.5246-3.79526-66.72021,3.50598-29.66309,9.75765-59.36182,19.84408-90.35987,24.72439-12.61953,1.98681-25.48018,2.43271-38.22392,3.65367-1.77596.17013-3.51092.7659-5.11483,1.93735,11.30226,3.32596,22.43381,2.46049,33.67017.98045,27.6742-3.64525,55.50422-4.45627,83.17537-.85709,20.90409,2.71897,41.49446,7.8039,62.37988,10.72378,19.07285,2.66647,38.32655,4.95755,57.55022,5.44141,42.45028,1.06846,84.93132,1.02891,127.40076,1.2008,87.45432.35396,174.90912.68129,262.36393.75807,46.13619.04051,92.27335-.71595,138.40954-.67657,83.79038.07155,167.58124.72316,251.37137.6506,68.62308-.05943,137.24542-.83737,205.86849-1.20988,3.04039-.01651,6.08542.83141,9.12825,1.27669l-.24161,1.87103h-901.66337c-.14692.44717-.29372.89435-.44063,1.34152,2.05052.99327,4.05284,2.10512,6.15912,2.9613,19.2288,7.8164,39.4842,8.81557,59.85932,8.81363,89.96622-.00854,179.93243-.063,269.89852-.10378,168.60186-.07643,337.20372-.11845,505.80558-.29417,15.29933-.01595,30.59573-1.13043,45.89775-1.26717,6.55717-.05859,13.12483,1.08101,19.93509,2.64927-.86516.501-1.68591,1.30036-2.60549,1.43745-1.63099.24311-3.32203.09246-4.98792.09246-285.39505.00122-570.79034.0012-856.18539.00122-2.27383.00002-4.54753-.00002-7.2698-.00002,1.05577,4.88929,3.8892,7.54585,7.68701,8.40743,6.12044,1.38851,12.41184,2.82101,18.63454,2.83632,55.97536.13769,111.95182.00398,167.92767-.12167,30.14717-.06766,60.2936-.36734,90.44053-.40347,124.28434-.14896,248.56844-.26877,372.85278-.33465,65.14168-.03453,130.28361.05129,195.42529.13562,4.07346.00528,8.14643.47188,12.21965.72385.02929.44971.05857.89943.08761,1.34914-.92471.23975-1.84039.63013-2.77633.68725-1.82599.11147-3.66321.03845-5.49579.03845-273.73281.00032-547.46563.00002-821.19844.00395-3.39902.00006-7.31056-.89313-8.0914,5.3889,15.26822,1.92182,30.49348,5.14482,45.78817,5.51716,44.94851,1.09425,89.92399,1.25742,134.8902,1.40551,44.81245.14756,89.62686-.19699,134.44029-.26758,67.63906-.10654,135.27812-.22412,202.91718-.21854,45.64638.00375,91.293.30495,136.93938.30237,48.13961-.00271,96.27897-.21556,144.41857-.32056,13.79573-.0301,27.59122-.0046,41.38695-.0046.23502.41631.47029.83262.70555,1.24892-.94692.85927-1.76351,2.06858-2.87614,2.48194-1.17364.43605-2.62965.11993-3.96242.11996-57.14559.0012-114.29142.05207-171.43701-.0106-92.45664-.1014-184.91303-.29177-277.36967-.41756-74.30239-.10108-148.60503-.23144-222.90742-.2061-28.81148.00983-57.62271.5477-86.43455.59497-25.8393.04239-51.60367-1.07812-76.78574-7.67982-13.27053-3.47899-26.27322-7.96615-37.31068-16.25236-22.74705-17.07666-47.96914-19.85384-74.939-14.45907-31.31471,6.26387-62.64882,12.43076-93.97195,18.65232-1.57706.31326-3.13069.74583-4.6853,1.98012,13.2842,3.58362,26.58841,7.09511,39.8476,10.76882,17.13997,4.74887,34.08713,10.31261,51.40343,14.27558,21.39122,4.89548,43.33472,4.18375,65.1512,4.11118,15.48872-.05152,30.97755.03302,46.46639.00813,37.98329-.06108,75.9667-.12321,113.94987-.23426,66.6293-.19479,133.25872-.65579,199.88765-.57335,57.79501.07151,115.58953.74935,173.38429,1.14386,50.46688.34451,100.93351.81357,151.40113.94786,32.62941.08683,65.26224-.1476,97.88922-.57223,33.29201-.43328,66.57866-1.27975,99.86774-1.93058,2.96815-.05804,5.93874-.00771,8.9086.884-16.26089.42939-32.51935.9927-48.78293,1.26307-49.11337.81651-98.22625,1.8531-147.34353,2.18842-74.62405.50945-149.25177.56672-223.87777.67487-23.31251.03377-46.62527-.52381-69.93827-.57711-79.96707-.18288-159.93414-.29211-239.90108-.36041-20.65467-.01766-41.30959.21376-61.96438.3444-1.2227.00775-2.44454.1376-3.66687.21063-.09359.53855-.18731,1.07712-.2809,1.61568,10.5058,2.67519,20.90434,5.92467,31.53899,7.91103,25.40025,4.74443,51.10117,2.7383,76.71155,2.48204,12.15742-.12164,24.31483-.26363,36.47273-.29758,50.31117-.14051,100.6221-.23083,150.93328-.3634,48.80684-.1286,97.61393-.31134,146.42077-.4211,25.4853-.05731,50.97231-.17713,76.4559.0265,55.45382.4431,110.90521,1.31485,166.35927,1.54594,36.63674.15266,73.27665-.51463,109.91533-.76271,1.64369-.01113,3.29103.49419,4.93667.75896l-.2277,1.7892h-748.9678c10.02917,7.60321,21.12532,11.90681,33.21221,12.26944,21.63405.64908,43.29031.7553,64.93717.7458,49.13997-.02154,98.2797-.26447,147.41967-.3924,48.97865-.12752,97.95706-.27785,146.93572-.32423,116.78757-.11061,233.57539-.17526,350.36297-.16349,1.96657.0002,5.06895-1.56245,6.07297,2.96799h-704.04857c6.08408,6.28272,13.75424,8.08738,21.52911,9.11179,6.90982.91046,13.94192,1.44202,20.90397,1.30703,23.94412-.46423,47.87872-1.43033,71.82234-1.92087,10.30824-.2112,20.63185.47107,30.94644.40888,41.63637-.25103,83.27128-.72485,124.90789-.94417,46.95913-.24736,93.92534-.83911,140.87715-.28798,38.93716.45703,77.84895,2.87922,116.78684,3.47655,43.96486.67445,87.94584.28607,131.91998.3516,11.31251.01686,22.62526.00253,33.93777.00253.00268.48658.00537.97316.00781,1.45972-24.75363.46427-49.50654,1.22907-74.26139,1.31811-32.29677.11618-64.59989-.01238-96.89154-.56516-40.77853-.69808-81.54339-2.26584-122.3229-2.82618-33.29348-.45744-66.5994-.01881-99.89996.08291-26.65284.08142-53.31032-.02301-79.95682.44813-43.77621.77402-87.55609,1.6248-131.31424,3.05939-32.22478,1.05645-64.37426,1.21979-95.63333-7.65541-16.42514-4.66347-32.21087-11.54294-48.38378-17.13729-19.64125-6.79406-39.33106-13.38022-60.18537-15.70998-25.12154-2.80647-48.6426,2.19944-71.00575,13.52499-6.1745,3.12709-12.2925,6.36612-19.48176,10.09613,19.91007,8.19421,38.75315,15.64777,57.33338,23.70653,11.59183,5.02763,23.57584,6.6162,36.00599,6.64142,70.80062.14362,141.60137.36394,212.40199.54058,63.13387.1575,126.26799.4456,189.40162.38177,40.80269-.04123,81.60465-.65661,122.40734-.93553,54.96426-.37574,109.92876-.9154,164.89326-.92608,38.96767-.00756,77.93583.72135,116.90277,1.19991,3.0299.03723,6.05247.69354,9.2144,2.26399-.91324.428-1.79427,1.10721-2.74655,1.22823-1.64027.20842-3.32495.07538-4.99085.07538-267.73501.00088-535.46977-.00192-803.20478.04235-2.52032.00043-5.04064.62709-7.56108.96139.02038.6613.04076,1.32258.06101,1.98388,9.19073,1.82566,18.31056,4.31874,27.59061,5.30315,10.8914,1.15532,21.91959,1.25568,32.89287,1.365,35.14009.35021,70.28238.66893,105.42394.68683,195.42749.09962,390.85474.11008,586.28223.14021,17.49262.00271,34.98549-.1539,52.47737-.05797,4.9025.02693,9.8011.69155,14.70165,1.06363.06101.51469.12227,1.02936.18353,1.54402-1.31641.31865-2.62965.89784-3.94924.91306-7.66297.08825-15.32715.044-22.9911.044-43.9839.00012-87.96756-.03766-131.95146.00845-75.96829.07959-151.93682.21278-227.90511.32048-56.64235.08032-113.28544.36421-169.92682.1775-61.79184-.20369-123.5816-1.00136-185.37319-1.21161-21.66687-.0737-43.28054.07212-64.68531-4.00826-16.76425-3.19571-32.60952-9.02344-48.31422-15.57145-19.17084-7.99311-38.52862-15.57323-58.01941-22.7522-14.69164-5.41136-29.38695-3.0285-43.26163,3.1339-22.4831,9.98585-44.69799,20.5777-66.98085,31.01011-6.08042,2.84672-11.7529,7.38742-19.21928,3.27515,10.6515,7.99219,21.45931,15.22922,34.79866,16.95004,7.57242.97685,15.23624,1.68575,22.86321,1.7275,42.98073.23522,85.9628.28975,128.94438.29197,39.98268.00207,79.96597-.04333,119.94804-.24144,45.3008-.22443,90.60087-.63661,135.90118-.97715,43.30275-.32551,86.60502-.68518,129.90802-.98853,26.48127-.18546,52.96767-.6793,79.44358-.35393,52.94058.6506,105.87238,2.2435,158.81296,2.5488,44.62771.2573,89.26176-.82054,133.89411-1.18573,31.31129-.2562,62.62429-.32817,93.93656-.38107,1.34106-.00229,2.68334,1.01564,4.02514,1.55832-1.33154.55202-2.61989,1.32853-4.00635,1.59436-1.44625.2773-2.98694.06279-4.48639.06279-328.71269.00006-657.42514.00009-986.1377.00009-2.313,0-4.62599-.00003-6.93899-.00003-.14631.46816-.2925.93632-.4388,1.40451,4.45406,1.68651,8.82136,3.66762,13.37779,5.00585,15.45296,4.53863,31.3551,6.03618,47.3789,6.03682,38.98146.00165,77.96316-.16381,116.9445-.31914,56.80062-.22635,113.601-.53881,170.40162-.74547,39.14851-.14246,78.29776-.20071,117.44651-.24001,157.93243-.15859,315.86485-.35491,473.79728-.36674,20.46419-.00152,40.92862.98462,61.39208,1.54338,1.08286.02958,2.1579.34122,3.45357,1.65755-1.00696.33481-2.00805.93837-3.02136.95904-4.99597.10215-9.99536.0519-14.99354.05193-49.64833.00049-99.29691.05409-148.94524-.01278-68.96597-.09288-137.93193-.282-206.8979-.41901-44.98085-.08934-89.9617-.1929-134.94255-.23071-78.97012-.06638-157.94048-.11856-236.9106-.11828-80.30276.00027-160.60552.07105-240.90828.11081-1.63197.00082-3.26382.00012-4.89579.00012l-.57474,1.39872c3.19488,1.69182,6.25235,3.74825,9.60842,5.01225,14.38792,5.41866,29.48469,6.69694,44.67359,6.70474,86.30081.04425,172.60174-.0465,258.90255-.07297,56.14607-.01723,112.29203.02711,168.43798-.01162,57.47554-.0397,114.95084-.11932,172.42639-.23272,54.80465-.10816,109.60954-.31173,164.41418-.41934,55.31032-.10862,110.62089-.15265,165.93121-.21184,1.43868-.00152,2.87761.14914,4.64015,1.20866-.80122.4209-1.57364,1.11791-2.41001,1.20588-1.81306.19092-3.65906.07632-5.49164.07632-291.55954.00088-583.11908.00372-874.67862-.03058-3.76425-.00043-7.31471-.06401-9.15314,5.61733,12.6864,1.67008,24.95046,4.6062,37.23283,4.68591,76.79904.49829,153.6021.43825,230.40382.41205,117.45237-.04004,234.90523-.41132,352.35687-.20052,41.61904.07468,83.23809,2.12955,124.85249,1.97983,28.59329-.10285,57.16755-2.86261,85.77183-3.60633,13.241-.34427,26.56132.97429,39.79427,2.12708,9.86919.85975,19.65589,2.66352,29.42234,4.46228-9.49896,1.85231-18.58743,2.52218-28.14863-.97819-13.50873-4.94556-27.86797-3.74337-42.03295-2.72017-26.21355,1.8935-52.44223,5.16789-78.65578,5.08613-37.91654-.11819-75.8138-3.1959-113.74108-4.08925-28.62795-.67436-57.28958.07986-85.93632.228-15.99097.0827-31.9817.24355-47.97243.33878-39.47334.23504-78.94645.65249-118.41979.63938-115.44895-.03836-230.89778-.25117-346.34674-.39525-1.9058-.00238-3.81159-.00027-5.71727-.00027-.25125.65816-.50262,1.3163-.75387,1.97446,4.99402,2.95985,9.72483,6.55932,15.03807,8.74269,10.20488,4.1936,21.17108,3.97521,32.0011,3.81247,14.9817-.2251,29.95913-.7576,44.94095-.93376,35.13692-.41312,70.27457-.8886,105.41295-.98825,91.12436-.25843,182.24945-.36857,273.37406-.45898,68.47494-.06791,136.94963.01406,205.42456-.02202,56.3102-.02967,112.6204-.1632,168.9306-.15265,4.52984.00085,9.05943.76318,13.47334,2.36511-273.74868.85978-547.49711,1.71957-821.24554,2.57935-.1291.258-.25808.51601-.38719.77401,1.48896.74891,2.93582,1.60043,4.47346,2.23076,15.03844,6.16495,30.89275,8.09215,46.92692,8.1249,52.28579.10685,104.5722-.08197,156.85848-.19455,26.15376-.05632,52.30727-.21437,78.46103-.2906,54.63698-.1592,109.27421-.34137,163.9112-.42834,73.96877-.1177,147.93755-.31265,221.90608-.16799,45.13216.08825,90.26335.72369,135.39429,1.20161,4.5396.04809,9.0731.70775,13.60928,1.0836l-.09079,2.48559c-6.89616,0-13.79256.03238-20.68847-.00656-15.65784-.0884-31.31544-.25267-46.97353-.31441-88.11838-.34744-176.23676-.82856-264.35539-.96026-76.80123-.11478-153.6032.16235-230.40468.28825-26.65406.04373-53.30861.073-79.96194.25203-38.30422.2573-76.60843.55177-114.91058,1.00502-36.24808.42889-70.65566-6.7245-103.06542-23.38452-14.18719-7.29286-28.80342-13.83081-44.66078-16.8793-17.14741-3.29643-34.17792-1.18362-51.14022,1.42238-24.65662,3.78816-49.2382,8.07007-73.9074,11.77081-21.08396,3.16299-41.09153-.47216-59.79489-10.87684-3.77938-2.10253-7.70531-3.94792-11.4371-6.12851-11.38023-6.64985-23.4875-7.99341-36.16352-5.06894-44.71508,10.31601-89.41917,20.67926-134.12254,31.04605-.42575.09871-.78353.48966-2.24979,1.44766,5.05625,2.42219,9.25589,5.04762,13.8277,6.51352,16.13887,5.17484,32.74302,9.08013,48.50654,15.18141,10.86187,4.20409,19.03112,2.93591,28.14314-3.91566,13.87371-10.43222,29.03198-18.72618,46.42795-22.25634,30.71739-6.23341,60.90178-3.3555,90.89752,4.52543,29.26553,7.68909,58.46932,15.65509,87.90874,22.61914,10.90983,2.58082,22.39476,3.47527,33.64784,3.71519,26.97658.57519,53.97133.28636,80.95853.38208,70.46176.24998,140.92364.50853,211.3854.78349,82.28702.32106,164.57404.72912,246.8613.96242,31.48408.08925,62.96914-.22443,94.45371-.31252,95.61954-.26755,191.23908-.5271,286.85887-.69198,2.23209-.00384,6.25674-1.8763,5.82038,3.63332-1.50531.07974-2.97499.22614-4.44466.22565-86.46127-.029-172.9223-.06111-259.38357-.11856-15.32545-.01018-30.65065-.15817-45.97609-.19549-63.96804-.15585-127.93633-.40687-191.90437-.4065-64.30093.00034-128.6021.26602-192.90302.39961-58.47506.12145-116.94999.23083-175.42505.32524-16.48823.02662-32.9767.02287-49.4648-.03928-29.40623-.11084-57.75498-6.57801-85.86969-14.4021-21.44967-5.96928-42.71154-12.74452-64.38329-17.74972-25.65687-5.92558-51.83588-7.04453-76.60624,3.36099-14.38743,6.04386-27.4515,15.23489-41.11105,23.0097.26687.66621.53374,1.33246.80049,1.9987,2.9014-.56312,5.8061-1.10922,8.70299-1.69414,2.93411-.59236,5.87859-1.14828,8.78731-1.84913,20.28957-4.88848,40.85431-7.90132,61.72362-8.17192,22.42307-.29075,44.49153,2.74234,66.08323,8.80297,19.86468,5.57582,40.11068,8.08852,60.6803,7.85656,21.7169-.24489,43.11703,2.80485,64.63552,5.06003,26.46285,2.77344,53.04186,5.33779,79.61734,5.94116,46.44516,1.05445,92.92607.71147,139.39161.64627,61.29922-.08596,122.59807-.40687,183.89668-.74138,60.79293-.33167,121.58465-.8961,182.37782-1.19253,66.2958-.32323,132.596-.94273,198.88765-.48877,39.72496.272,79.43748,2.35169,119.13754,4.48429h-840.13328c-.13252.32201-.26504.64405-.39744.96605,1.45796.71549,2.90519,1.454,4.37584,2.14284,18.39183,8.61556,37.88713,10.9596,57.93656,10.22176,3.99353-.14698,7.99439-.11905,11.99195-.12475,58.80831-.08386,117.61686-.10788,176.42493-.24974,86.1218-.20775,172.24408-.4184,258.36564-.77968,67.29104-.28228,134.58282-1.2676,201.87093-1.02695,39.60611.14167,79.20563,2.06515,118.80783,3.1984.95204.02726,1.90043.18647,2.81684,1.0389h-8.42099c-255.40627.00003-510.8123-.00122-766.21844.01534-3.17364.00021-6.95461-.99267-8.01403,4.76885,10.86626,1.36774,21.60366,3.45201,32.41282,3.93508,26.76999,1.19634,53.56902,2.07936,80.36341,2.32803,49.6221.46057,99.2531.80596,148.87336.38693,40.11227-.33872,80.20941-2.28162,120.32217-2.76853,48.62991-.59035,97.26908-.39867,145.90436-.54256,2.66553-.00787,5.3313.01455,7.99683.01458,86.46835.00091,172.93646-.00878,259.40481.05513,2.20281.00162,5.74887-1.51685,5.59073,4.44044-13.19781,0-26.32728.01662-39.45675-.00308-40.81587-.06126-81.63199-.21556-122.44786-.18869-73.46993.04839-146.94109-.03937-220.40907.39955-46.44979.27749-92.89471,1.42174-139.34206,2.14754-23.47627.36683-46.95352.90546-70.43052.94029-31.46431.04669-62.93888.10301-94.39074-.62935-30.4443-.7089-60.91594-1.73707-91.27311-3.99866-12.76034-.95065-25.63539-4.33186-37.80477-8.50991-40.19671-13.80025-81.37158-22.69593-123.66628-26.09658-23.87395-1.91954-47.908-1.94787-71.74864-4.14399-12.46675-1.14834-24.75742-4.80115-36.97853-7.90925-45.62637-11.60392-90.35658-8.58208-134.43139,7.45048-32.4903,11.81859-65.02222,23.52327-97.56146,35.20656-6.18829,2.22191-12.49799,4.10602-19.98329,6.54776,11.64613,6.04011,22.01684,11.56096,32.57462,16.6975,1.19463.58123,3.72215-.61297,5.16083-1.64163,16.11666-11.52223,32.40867-22.8243,48.13424-34.86318,32.73009-25.05671,68.12814-29.11562,106.51607-15.48915,27.5673,9.78559,55.48494,18.58188,83.12204,28.17698,6.47785,2.24893,12.3756.48695,18.57194-.26206,18.80122-2.27287,37.58634-4.82731,56.45138-6.37417,12.66053-1.03808,23.65248,3.39913,31.16535,14.32504,6.41342,9.32691,15.73203,12.38888,26.40574,12.34613,37.64028-.15073,75.28018-.4133,112.92022-.62764,20.98902-.11953,41.97804-.25608,62.96719-.33396,28.48677-.10569,56.9739-.24861,85.46078-.22114,48.12814.04647,96.25725.09584,144.38441.36699,40.4681.22803,80.934,1.03686,121.40185,1.11123,49.78939.09154,99.58025-.32097,149.37038-.49969,62.46346-.22425,124.92669-.43319,187.39015-.6456,4.15961-.01415,8.31946-.00186,12.48444.72394-22.95888.44733-45.91605,1.03921-68.87713,1.30953-38.46883.45298-76.93986.83115-115.41088,1.00676-68.79562.31408-137.59197.46825-206.38808.65283-11.32569.0304-22.65187-.16485-33.9778-.18802-76.62991-.15677-153.25982-.46764-229.88949-.38565-61.96194.06632-123.92339.63093-185.88521.93465-16.30104.07989-32.60293.01204-49.05761.01204.99353,6.76314,5.62075,11.83668,12.47993,12.71134,7.54912.96264,15.25638,1.11016,22.88274.96755,30.29165-.56644,60.57585-1.818,90.86811-2.02069,65.13131-.43575,130.26592-.42523,195.39906-.51314,86.79904-.11715,173.59784-.19022,260.39687-.21098,45.98048-.01104,91.96121.06077,137.94145.21793,54.63406.18674,109.26787.50585,163.90168.76523,2.59646.01232,5.19268.00159,7.77987.71436-17.14948,0-34.29921-.00604-51.4487.00101-92.29849.03778-184.59747-.03668-276.89572.15356-80.62161.16616-161.24298.60392-241.86411.97362-62.96255.28874-125.9251.6181-188.88716,1.0063-32.30824.19921-64.61514.58501-96.92314.826-2.75497.02052-5.09115.13661-4.82367,4.89985,8.89518,1.11721,18.01587,3.10399,27.16889,3.26591,38.46419.68049,76.93778.87433,115.40856,1.12989,26.65357.17704,53.30873.11322,79.9628.24581,60.46127.30069,120.92254.72726,181.38405.9713,73.96048.29853,147.92144.6471,221.88216.62322,53.63198-.01729,107.26396-.69954,160.89643-.89976,28.45931-.10624,56.92008.17479,85.38037.31347,1.6349.00796,3.26858.30957,4.90275.47453-.02465.52851-.04954,1.05704-.07444,1.58558-1.323.13884-2.64625.40053-3.96901.39851-30.98451-.04723-61.96902-.11377-92.95353-.19525-82.28824-.21644-164.57624-.45258-246.86447-.64941-10.15986-.0243-20.31995.18476-30.48005.21309-57.13729.15933-114.27433.34195-171.41162.42992-74.96816.11542-149.93633.23257-224.90425.17576-26.8094-.02031-53.62515-.27816-80.42576-.93138-18.46614-.45011-36.18561-4.60907-53.04626-12.48097-11.16803-5.21405-19.0432-13.6773-23.9429-24.46066-6.09787-13.42034-16.51849-17.40677-30.17426-17.33502-22.45955.11801-43.74009,5.77577-64.92106,12.41632-41.9285,13.14529-84.3351,24.46828-127.78392,31.37412-17.07847,2.71447-34.31776,4.41769-51.48482,6.57386-.99085.12447-2.08896-.0487-2.96168.32539-1.20903.51835-2.25174,1.42449-3.36559,2.16456,1.05528.55211,2.06663,1.4695,3.17242,1.60275,25.11202,3.02483,50.23235,5.98035,75.35584,8.90985,8.49628.99069,16.52264-1.11782,24.42002-3.93108,15.96462-5.687,31.8742-11.5347,47.90556-17.02679,19.18426-6.57225,37.05919-2.07009,54.25382,7.08975.72544.38638,1.57364.7827,2.01989,1.4168,9.06846,12.88588,23.15742,15.19043,37.06773,16.34582,17.55034,1.45779,35.22832,1.7253,52.85541,1.8331,28.31141.17317,56.62612-.2695,84.93961-.33838,62.63918-.15247,125.27849-.22452,187.91779-.35,22.9889-.04604,45.97756-.17512,68.96646-.22355,74.46396-.15689,148.92767-.29228,223.39162-.43922,54.64235-.10779,109.28593-.04653,163.92657-.39348,35.62856-.2262,71.25468-1.53753,106.87909-1.43827,25.11752.06995,50.23064,1.69036,75.34522,2.63287.48176.01808.95668.21403,2.57645.59681-1.82135.72241-2.70043,1.31151-3.62148,1.38695-1.98658.16271-3.99463.06757-5.9939.0676-320.71562.00091-641.43099-.00021-962.14648.01445-3.57267.00015-7.47724-.8088-10.60793,4.49704m-155.61089-2.2263c1.0122-.48609,1.94704-1.13297,4.15302-2.4346-8.36108-1.5041-15.43332-2.84507-22.52984-4.04187-48.87786-8.243-97.75377-16.49832-146.64579-24.65639-18.03978-3.0101-36.05516-6.31666-54.20013-8.50829-25.03246-3.02349-49.826-.72293-74.23528,5.66892-11.67493,3.05721-23.55034,3.64668-35.62185,3.65704-24.13179.02077-48.26273.90412-72.3944,1.41299-38.10788.80356-76.16353,1.67349-114.29654-1.15932-28.51044-2.11796-57.21172-1.83319-85.83345-2.21277-12.30195-.16317-24.63344.4337-36.92283,1.16658-14.85559.88592-28.43417,6.51712-41.93302,12.25087m52.08171,20.06211c8.97303-3.60947,18.66431-6.07905,28.25809-7.3182,9.30653-1.20198,18.93997-.70168,28.3601-.0061,14.33301,1.05836,28.15717-.40181,41.77072-5.08052,43.95254-15.1056,88.08067-14.74947,132.5229-1.78101,33.31264,9.72079,67.48897,11.06413,101.93315,8.91452,19.52435-1.21854,38.61209-4.61825,57.35779-10.15019,18.30629-5.4022,36.07261-3.89547,53.57695,3.77124m-413.01569,7.36184,735.43772-8.1643c-14.20671-14.23063-31.344-20.39522-51.34986-16.86588-20.87761,3.68311-39.795,12.91141-58.72106,21.89954m-246.961-322.2136c5.7108-1.22069,11.37401-3.12001,17.14216-3.52478,13.15973-.92344,25.96999,2.21203,38.08909,6.67306,11.718,4.31338,21.91996.27926,33.63124-2.49696-1.92215-1.08386-2.96718-1.80381-4.10995-2.29754-14.03454-6.06323-28.05528-12.16013-42.13729-18.11156-11.82368-4.99696-23.79708-9.44072-36.913-9.65017-14.54485-.23227-28.9684.16454-42.55559,6.28534-7.56254,3.40669-8.55632,5.76211-4.45503,13.03533,2.92837,5.19314,6.4881,10.05402,10.07468,14.83158.65979.87872,2.86638,1.06848,4.24259.84864,3.91239-.62494,7.76449-1.62608,11.64039-2.47915-2.99317,2.00572-6.5961,3.51214-8.78158,6.17909-1.67407,2.04304-2.72605,5.89539-2.00574,8.33972,1.723,5.84698,15.00964,12.53288,21.19866,11.45977,6.38841-1.10771,12.75278-2.36002,19.15266-3.39451,17.86443-2.88772,35.84333-4.53084,53.45578.79993,12.37975,3.74701,24.47603,8.5123,36.50544,13.30754,9.66821,3.85394,19.45638,5.68089,29.76279,4.10002,11.99866-1.84047,23.98329-3.77597,35.96035-5.75305,7.78243-1.28466,15.54033-2.71727,23.30922-4.08358-.03331-.74068-.06663-1.48134-.09994-2.22202-1.50165,0-3.07114-.29033-4.49481.04274-30.41355,7.11579-60.07933,4.74193-89.16072-6.55706-19.0554-7.40363-38.11337-14.8329-57.39391-21.61531-13.56913-4.77326-27.56791-7.8516-42.05748-3.71705Zm29.33777,89.61483c.05027-.4949.10067-.98981.15107-1.4847-3.38963-1.67381-6.7169-3.49179-10.18341-4.98718-5.03173-2.17062-10.24039-3.93763-15.23978-6.17552-19.76059-8.8455-33.71593-22.80683-38.86224-44.46664-.72849-3.06555-1.85613-6.0344-2.73569-9.0663-7.97157-27.4749-21.09592-51.64488-44.3041-69.41824-6.73069-5.1546-11.81489-4.52594-16.37291,2.29299-2.40391,3.59646-4.84527,7.16868-7.20293,10.7952-18.94826,29.14578-37.94497,58.26047-56.78464,87.47633-7.17133,11.12114-17.0022,18.75103-29.53423,22.4691-11.60403,3.44275-23.42282,6.21124-35.23735,8.87715-6.56437,1.48122-13.31312,2.14556-19.97877,3.1781,27.52398,6.16469,55.08409,10.91136,82.17061,17.57924,21.15473,5.20768,41.22197,5.17542,61.48165-3.17312,8.70641-3.58776,18.02709-5.81172,27.20781-8.09697,17.13033-4.26413,33.14668.06121,48.05516,8.21391,8.93935,4.88839,16.71995,5.06549,25.71776.27395,10.19524-5.42918,21.07163-9.58044,31.65199-14.2873Zm259.38943-195.8623c-4.24906.66179-8.49421,1.34947-12.7479,1.98072-15.31605,2.27297-30.66175,4.92983-46.1872,2.76057-31.78658-4.44134-63.52057-9.2587-95.29569-13.78456-28.73484-4.09284-57.07347-2.82282-84.74327,6.75988-24.18182,8.37476-48.33058,16.85238-72.62198,24.89834-5.73154,1.89847-12.0371,3.39836-17.97487,3.08943-17.10189-.88979-34.14485-2.86771-51.22185-4.28795-21.23539-1.76609-42.34705-3.9894-62.9811-9.86283-22.89665-6.51748-46.41526-9.31807-70.13534-7.2334-28.49116,2.50396-56.88787,6.09125-85.31509,9.30155-6.80244.76821-13.56376,1.90082-20.34399,2.86584,9.76169,7.38246,19.35656,14.39738,29.8587,19.5727,5.98524,2.94942,13.5263,4.30381,20.23759,3.94741,26.74229-1.42014,53.41575-4.0862,80.14901-5.73612,28.61794-1.76622,57.21429-.68087,85.77354,1.86212,12.24576,1.09038,24.72508,3.23312,36.79012,1.96581,32.49445-3.41325,65.00685-5.23933,97.64724-5.2203,15.31532.00893,30.63063.24095,45.94534.42541,15.15034.18247,30.30165.34291,45.44906.67677,16.65699.36715,33.3346.45959,49.6426-3.31603,8.69555-2.0132,16.90324-6.43485,25.64418-7.88472,16.70067-2.7702,33.65394-3.97763,50.44894-6.23189,18.21343-2.44464,35.47676-8.24495,51.98195-16.54872Zm-506.97593,368.56616c19.51337,7.87181,38.86712,11.52662,58.70105,12.68551,19.26651,1.12568,38.55376,1.91796,57.83759,2.72209,11.62892.48487,23.36779,1.83782,34.8825.82161,23.70275-2.09192,47.22612-2.04091,70.62625,2.20325,14.2205,2.57926,28.25004,6.21386,42.47591,8.75717,8.36425,1.49535,16.84772.96422,25.67725-2.76859-5.51629-4.53811-10.67517-8.41721-15.41391-12.75498-10.52654-9.6359-21.56266-18.8608-31.01648-29.47635-7.55693-8.48545-15.30324-16.27663-25.58048-21.02823-39.65589-18.33443-80.33302-19.07465-120.81357-4.07254-24.74412,9.17014-48.48323,21.05363-72.65761,31.75453-8.00232,3.54227-15.95473,7.19696-24.71849,11.15653Zm45.33912,61.70291c-24.15839-10.92359-49.42685-12.8571-74.6958-8.10883m220.42103,15.35836,333.24131-59.8059c.10982-.65646.21965-1.31294.32947-1.9694-23.75388-12.23522-47.13521-25.27543-71.36804-36.47532-23.40135-10.81552-47.45407-9.55515-70.05529,3.0291-11.26565,6.27278-22.10104,13.68953-32.01758,21.92793-16.43905,13.65733-33.82136,25.23241-54.46151,31.39224-4.4665,1.33298-8.95619,2.58893-14.08896,4.06885,1.3086.64636,1.86443,1.05534,2.48322,1.20716,24.32838,5.96803,48.91435,9.97333,74.06713,8.53238,36.45565-2.08848,72.35755-8.05589,107.81247-16.59498,19.19976-4.62413,38.20574-10.05243,57.2991-15.11795Zm-664.94448-136.46485c.10818.14695.21629.29392.32441.44087,7.47505,0,14.95296-.13545,22.42447.02622,19.95071.4316,39.02234,4.3589,55.99403,15.43139,10.34009,6.74594,22.0537,9.76177,33.73143,8.81956,21.15644-1.70704,42.63198-3.57145,63.07274-8.85521,19.77401-5.11141,38.81319-13.74854,57.4526-22.39362,25.99744-12.05781,52.57939-18.46482,81.26969-14.40386,8.49042,1.20177,17.04418,1.95607,25.56889,2.91545-2.7518-3.04078-5.89067-5.3714-9.1828-7.46082-12.30311-7.8085-25.34412-14.17253-40.31044-11.33845-11.02514,2.08771-21.84235,5.63971-32.47737,9.33051-15.2637,5.29718-30.59891,9.41281-46.86785,6.39734-9.95912-1.8459-19.87285-4.03738-29.68689-6.54334-21.57719-5.50965-43.15937-7.7412-65.09226-2.03142-28.78622,7.49393-57.62002,14.80464-86.43943,22.17047-9.91776,2.53483-19.85357,4.99865-29.78121,7.49491Zm129.77452,122.83776c.24637-.57739.49286-1.15478.73923-1.73216-.10128-.30883-.10543-.73693-.31763-.90955-21.81184-17.74195-42.70971-36.79635-65.71228-52.83511-25.90507-18.06274-54.74803-19.71019-82.18433-3.04678-12.27371,7.45448-22.68652,18.38221-32.80629,28.8342-7.70903,7.9621-15.04698,15.88885-25.33222,20.53646-2.53246,1.14432-4.93893,2.81836-7.00421,4.68905-3.59549,3.25679-3.67187,6.69154.04253,9.77229,2.9011,2.40631,6.28225,4.34756,9.68438,6.01913,22.91861,11.26075,46.19586,12.39248,69.81289,2.1594,4.82477-2.09058,8.74283-5.14273,9.70934-10.53215.99567-5.55286,1.74735-11.19288,2.01959-16.82307.60879-12.5887,3.44564-16.53497,15.55876-19.73891,11.38292-3.01077,22.19878.06803,32.55632,4.25614,15.54985,6.28766,30.72276,13.50337,46.23991,19.8772,8.80879,3.61829,17.9839,6.34541,26.99403,9.47385ZM1437.83933,35.96302c-1.52593-.95485-2.28127-1.57424-3.1435-1.94544-19.995-8.60758-39.98134-17.23627-60.01295-25.75839-15.43539-6.56675-31.14217-7.07509-46.58305-.47358-17.24113,7.37129-34.19488,15.41415-51.27713,23.15724-7.55668,3.42528-14.91849,7.41131-22.71898,10.14407-29.17633,10.22145-59.41624,10.30713-89.78855,8.59522-4.61989-.26039-9.2432-.45997-13.8648-.68768,4.96888,1.97342,9.99305,2.91291,15.01574,3.86073,39.24735,7.40618,78.46115,14.20083,118.76707,12.95091,31.72142-.98372,63.06444-3.04974,93.61002-12.44159,19.64955-6.04167,39.48579-11.47602,59.99611-17.40148Zm-61.13509,309.68218c.05833-.26837.11666-.53671.17498-.80508-5.60244-2.45583-11.21294-4.89363-16.8061-7.37035-44.94095-19.90035-90.98061-22.52269-137.66299-7.49339-34.30385,11.04404-68.23284,23.25084-102.32278,34.95749-1.11812.38394-2.16827.96529-3.53106,1.58168.85979.54104,1.24308.88982,1.69359,1.04954,5.79024,2.05307,11.56303,4.161,17.39219,6.09845,31.06761,10.32608,61.80404,11.43828,93.2282-.00439,33.80977-12.31136,69.00233-19.66482,104.80685-23.69561,14.32288-1.61242,28.68359-2.88892,43.0271-4.31835Zm-211.03848,91.28263c-2.49152-1.06351-3.9241-1.73488-5.39866-2.29565-42.08042-16.00338-84.16438-31.99792-126.24969-47.98822-12.77804-4.855-23.58493,2.71423-23.2651,16.30938.04295,1.82471.19689,3.65634.44301,5.46523,1.91324,14.05865-1.67596,20.75836-15.03923,25.19091-9.26803,3.0742-18.94082,4.95041-28.46816,7.21291-4.34405,1.03164-8.77346,1.70365-13.16419,2.5388.83935,1.24882,1.57584,1.50962,2.33161,1.68947,22.30403,5.30806,45.05797,6.35236,67.83772,7.07343,28.58085.90473,57.16182,1.82675,85.74779,2.53996,20.07468.50085,36.97133-8.96764,55.2249-17.73622Zm-62.74913-113.17244c12.65699,4.01729,25.17694,5.78089,38.12106,3.83826,26.31166-3.94895,52.67432-7.55757,79.0182-11.29131,3.12825-.4434,6.26858-.80349,9.40574-1.1813,2.90153-.34936,5.80622-.67054,8.70958-1.00417-24.60952,4.32042-48.02014,12.04854-70.75303,22.18544-6.47749,2.88834-13.45821,4.82301-20.37352,6.52227-16.7828,4.12395-33.94497,4.24968-51.10886,4.18714-4.27322-.01558-8.54838.47981-13.89177.80548,14.25552,11.77962,29.17682,13.49072,45.27359,9.84392,24.42075-5.53262,47.64199-14.6153,70.78696-23.87214,51.89519-20.75556,104.32192-22.62079,156.85457-3.38855,17.79012,6.51294,35.30812,13.67304,53.74376,18.17553,2.68627.65606,5.67114.09108,8.51776.09108.17889-.84271.35778-1.68539.53679-2.5281-7.97279-4.32765-15.66394-9.31014-23.96449-12.87503-48.45565-20.81072-99.14389-25.12184-151.10668-19.56946,3.0565-.71336,6.10934-1.181,9.1684-1.60409,22.59036-3.12482,45.02856-6.85937,66.5207-14.94478,7.2155-2.71447,12.59915-7.60526,17.93155-12.9161-7.4997-4.89964-23.60916-9.357-34.82588-10.35367-24.11593-2.14281-46.14436,4.82725-67.15267,15.51632-35.22124,17.92064-72.10544,29.85855-111.68288,32.81136-6.57828.49076-13.15266,1.03329-19.72886,1.55192Zm189.17124,37.52261c.06638.53192.13289,1.06388.19927,1.5958,7.23124,1.04405,14.46651,2.0617,21.69323,3.13665,35.05211,5.21396,65.69666,18.11122,85.62564,49.43939,1.88212,2.95884,3.94216,2.19212,6.34838,1.38222,21.25077-7.15281,42.50422-14.29714,63.75974-21.43577,14.46455-4.85789,28.93338-9.70255,44.431-14.89871-2.25247-.84164-3.43856-1.35954-4.66846-1.73332-23.68042-7.19766-47.23881-14.84434-71.10495-21.3645-11.78634-3.21998-24.06895-5.19579-36.25614-6.26235-27.29555-2.38883-54.53131-.60956-81.53717,3.89175-9.57792,1.59641-18.9983,4.13847-28.49055,6.24884Zm137.59575-62.23468c.95985,1.26379,1.24247,1.84441,1.69896,2.20633,11.08505,8.79117,22.16755,17.58637,33.32167,26.28973,1.12422.87732,2.68505,1.62083,4.06992,1.66987,8.2454.29194,16.7856,1.80126,24.69421.22788,21.34241-4.24596,42.51166-9.47581,63.57195-14.9929,22.03405-5.77223,42.71435-4.4502,62.23113,8.31975,4.49909,2.94384,9.90043,4.73467,15.10983,6.32614,14.02917,4.28596,28.51337,4.9187,43.03552,4.0265,7.30629-.44892,14.56108-1.73741,21.8393-2.64623-.53716-1.64041-.99756-2.12821-1.56315-2.37999-25.9684-11.56361-51.80123-23.44801-77.96804-34.5452-21.47444-9.10717-43.47884-9.18786-65.93497-2.64918-11.74863,3.42097-24.01123,6.11461-36.17853,6.83775-22.40964,1.33197-44.91996.98944-67.38903,1.29578-6.57425.08965-13.15083.01378-20.53875.01378Zm116.02797-17.30855c.04222-.60099.08432-1.20198.12654-1.80297-.77096-.51643-1.49762-1.12007-2.31934-1.53606-10.52874-5.32965-21.03478-10.70608-31.61807-15.92575-18.34741-9.04886-36.68152-18.05034-57.53265-20.10303-20.74473-2.04223-41.15888-2.06757-60.74303,6.56568-13.98487,6.16497-28.10019,12.03362-42.13326,18.09029-5.61855,2.42497-6.00159,3.43216-4.6648,8.5712,12.51983-2.59076,24.87017-6.44198,37.43967-7.3902,13.0637-.98548,24.75119,3.79737,31.7429,16.28276,2.68005,4.7859,7.07407,8.0701,12.30629,8.51963,11.69774,1.00493,23.66077,2.70511,35.17511,1.3116,27.51178-3.32946,54.82637-8.28447,82.22064-12.58315Zm258.16893-64.25385c-.18401-.48327-.36791-.96656-.55192-1.44983-5.0532-.23405-10.10433-.58873-15.16022-.68192-26.27346-.48431-52.57719-.29432-78.81307-1.54309-19.51068-.92867-38.48408-5.29338-56.22197-14.16512-4.98499-2.49327-10.44796-4.29263-15.88933-5.56718-20.52008-4.80653-41.09031-1.44416-61.58525.42399-24.35595,2.22008-48.66224,4.98465-72.98781,7.53594-8.02404.84158-16.04052,1.7536-25.48982,2.7902,1.94228,1.04695,2.45699,1.39869,3.02306,1.61859,14.25138,5.53739,28.47908,11.13861,42.79976,16.49144,1.84942.69137,4.27871.48387,6.27968.01394,13.10824-3.07836,26.36071-5.73814,39.19744-9.72141,12.31544-3.82154,23.91117-4.22292,35.46627,1.94926,2.17926,1.16414,4.68945,1.69296,7.00195,2.62662,18.81867,7.59831,37.9307,12.38447,58.67469,11.56013,31.42685-1.24886,62.9285-.50966,94.37671-1.39053,9.84784-.27583,19.70495-2.69521,29.395-4.86117,3.72837-.83335,7.0033-3.6933,10.48481-5.62986Zm-289.33794,9.31221c-.08286-.4538-.16571-.90761-.24844-1.36141-.73179-.36741-1.441-.79073-2.19841-1.09419-28.54912-11.43798-57.06407-22.96315-85.67567-34.24338-10.93875-4.31268-22.50238-6.74385-34.19988-5.80294-11.87871.95546-23.69982,3.10719-35.41916,5.38646-7.28493,1.41677-14.49591,3.62085-21.43356,6.27287-4.83588,1.84862-5.15754,4.46394-3.01769,9.25897,2.89054,6.47757,7.66773,10.93384,14.40598,12.87662,4.92508,1.42002,10.05089,2.87015,15.11214,2.96421,20.12813.37394,39.58622,4.22874,58.91764,9.53031,20.02978,5.49308,40.42197,8.76614,61.15596,4.48783,10.96937-2.26345,21.74046-5.48588,32.6011-8.27535Zm-95.13827-58.47578c2.03112.87578,3.01074,1.42234,4.0604,1.73218,16.56681,4.8904,33.02941,10.19442,49.7573,14.45732,10.70141,2.72711,21.86968,5.82122,32.70348,5.4147,30.74753-1.15374,61.2825-5.19307,91.36817-11.92651,8.56803-1.91764,16.96669-4.59227,26.68738-7.26144-1.97828-1.09233-2.50165-1.48546-3.09042-1.69147-26.02173-9.10352-52.03784-18.22427-78.10239-27.20368-1.73313-.59704-3.92276-.47336-5.76278-.06547-27.5717,6.11221-55.12374,12.31379-82.67274,18.52777-11.31324,2.55183-22.60867,5.18338-34.94839,8.0166Zm207.65666-87.20447c-2.22794-1.00791-2.92874-1.48256-3.69652-1.64954-31.91422-6.9408-63.55901-8.05722-94.97683,3.08913-27.88018,9.89118-56.59635,16.1501-86.26957,17.26094-40.41709,1.51303-80.84285,2.80296-121.25615,4.40507-12.55851.49784-25.08908,1.6988-38.3285,2.62666,2.87822,7.42478,7.73789,11.51187,13.98817,12.14714,7.99646.81278,16.34436.95849,24.2177-.43408,13.23002-2.33999,26.1623-6.31102,39.2969-9.25222,23.23149-5.20214,46.41368-2.6953,69.39904,1.58394,31.508,5.86592,63.1656,6.85462,94.21686-.66923,34.32203-8.31634,68.05932-19.04389,103.40893-29.10783Zm-722.6498,7.62887c1.71403.52778,3.41971,1.08457,5.14332,1.57891,20.91147,5.99735,41.82618,11.98354,62.73875,17.97713,8.29793,2.37818,16.71123,4.42205,24.86572,7.21892,21.32776,7.31506,42.25443,4.71477,63.13546-1.79352,5.22575-1.62875,10.49823-3.10756,16.82978-4.97378-7.47175-4.28768-13.79158-7.92001-20.11678-11.54266-8.65052-4.95451-17.36669-9.79784-25.9457-14.87317-19.19195-11.35399-39.84241-14.83966-61.87664-12.5422-22.68914,2.36573-43.86578,9.74535-64.7739,18.95036Zm411.4933,216.26545c.03112.45996.06223.91992.09335,1.37985,2.01147.61654,4.02514,1.22555,6.03392,1.85069,31.85553,9.91384,63.89153,19.29466,95.48422,29.98489,14.45394,4.89092,27.65809,2.14053,41.9595-1.54698-1.50799-1.64193-2.56193-2.877-3.70616-4.02192-16.81379-16.82398-33.76498-33.51322-50.42319-50.48961-13.2626-13.51584-24.02185-14.29714-39.15693-6.58292-17.27395,8.80432-33.56596,19.53336-50.28469,29.42601Zm-321.00744-101.2436c-.05692.59318-.11391,1.18637-.1709,1.77953,3.64875,1.85031,7.19982,3.93391,10.964,5.50856,12.91995,5.40465,26.73411,6.60079,40.44589,8.1286,4.22331.47055,8.92093,1.5092,12.70665.23141,14.94448-5.04407,29.53716-11.1205,44.41721-16.36916,7.02245-2.477,14.2936-4.77972,21.63673-5.71798,21.60989-2.76114,43.31496-4.77378,64.97573-7.14369,4.50738-.49315,8.98475-1.2626,13.4759-1.90472-.57059-.94087-1.03136-1.11295-1.5075-1.20939-22.80086-4.61755-45.63698-9.06793-68.39074-13.90603-11.92154-2.53483-23.77816-3.38349-35.58195-.11412-30.7551,8.51841-61.46542,17.20059-92.14724,25.97929-3.75272,1.07371-7.22276,3.13441-10.8238,4.7377Zm483.01894-115.07153c-1.97035-.11481-3.36815-.27377-4.76522-.26613-23.6454.12921-47.29275.14042-70.93558.46388-23.1346.3165-46.26383,1.00903-69.39721,1.44031-29.77743.55516-59.5606,1.56047-89.33388,1.34665-24.92581-.17903-49.86334-2.99873-74.75523-2.52484-28.91727.55053-57.79147,3.40028-86.68141,5.29656-4.51702.29648-9.01831.82883-13.52691,1.25212,2.44137,2.75385,4.96705,5.01085,7.85821,5.67218,8.68286,1.98624,17.48432,4.518,26.28371,4.69977,15.60976.32247,31.25004-1.32821,46.88177-1.4182,18.6205-.1072,37.2443.68775,55.86883.85046,14.8094.12937,29.62465.02917,44.4321-.24797,5.27395-.09873,10.30409-1.42286,12.46028-7.09664,62.35462,5.71948,198.9162-.09058,215.61053-9.46814Zm212.34012,167.3024c-1.50921-.8281-2.05967-1.20012-2.66101-1.45007-31.92045-13.26882-63.82942-26.56545-95.80783-39.69371-1.95754-.80368-4.58694-.77536-6.70079-.27599-31.54131,7.45173-63.0509,15.03823-94.56121,22.62035-5.14521,1.23805-10.2587,2.60738-15.38682,3.91601-.00012.58277-.00024,1.16554-.00024,1.74829,6.63246,1.04143,13.30885,3.13149,19.88615,2.85649,8.06101-.33701,16.04625-2.61694,24.05223-4.11988,30.85602-5.79243,60.47628-3.55789,88.44761,12.26815,14.73423,8.33666,30.8493,12.20514,47.93485,11.34118,11.91202-.60242,23.15571-3.60725,34.79708-9.21082Zm157.03054-53.26102c-.09945-.60036-.19878-1.20073-.29823-1.80109-11.40317-.52005-22.85784-1.99596-34.20013-1.3853-37.6958,2.02952-74.37573-2.22882-110.00856-15.01708-43.31276-15.54454-86.38684-15.0878-129.08752,2.51457-1.54509.63691-3.04918,1.37361-4.57242,2.06384,1.29555.98772,2.25125,1.17103,3.19622,1.12657,2.65747-.12505,5.32251-.23882,7.96339-.54194,26.57963-3.05085,52.84003-2.06879,78.48092,6.32216,11.04393,3.61411,21.76083,8.71441,33.05968,10.97384,40.3468,8.06807,81.20453,6.23742,121.9046,3.71411,11.30873-.70111,22.38121-5.20853,33.56206-7.96967Zm-1082.939,29.41659c.03344.41468.06693.82935.10037,1.24403,75.89153-6.53314,151.78307-13.06627,228.97356-19.71123-14.80208-10.77838-28.84894-19.37464-46.16926-20.68414-5.3058-.40115-10.582-1.24095-15.89091-1.54344-13.6598-.77829-27.531-1.47755-40.56493,3.17424-41.47572,14.80265-82.98824,29.37882-126.44883,37.52054Zm292.2582-4.53242c17.50641,10.20872,35.16779,14.45704,54.31789,13.93441,25.97084-.70878,49.57804-7.00525,68.90605-25.45222,4.08395-3.89769,4.25577-7.44347-.55143-10.45064-2.49787-1.56245-5.31239-2.84317-8.15754-3.58866-14.30202-3.74736-28.81672-2.94035-43.07688-.34939-24.92093,4.52793-47.22246,16.55057-71.43809,25.9065Zm-58.49074-92.7707c-13.10318-8.34074-24.65095-16.58802-37.02337-23.32136-13.0421-7.09778-27.1404-13.1109-42.34827-11.11843-19.1875,2.51386-38.15272,6.72288-57.2138,10.20061-.02447.57325-.04899,1.1465-.07346,1.71975,7.01172,2.82812,13.96059,5.82569,21.04711,8.45208,19.93631,7.3887,39.64723,15.56801,59.98299,21.64281,18.55784,5.54365,36.78445,1.30248,55.62881-7.57546Zm687.41483,19.43694l.01794-1.60062c-22.52691-6.24015-44.87408-13.2603-67.63125-18.50198-22.95669-5.28768-46.18768-3.58596-69.24797,1.30822,4.99207,3.34975,9.86797,6.63439,15.20879,8.74126,9.70372,3.82791,20.0083,6.2398,29.48115,10.52562,19.3069,8.73501,39.21672,12.24262,60.19879,9.43252,11.2194-1.50261,22.01477-4.44886,31.97255-9.90503Zm62.6271,168.25237c-2.01306-.96053-3.28042-1.70594-4.64039-2.19319-24.6216-8.82188-48.06456-19.48408-69.416-35.23928-19.5241-14.40673-41.21306-8.50115-62.77866-1.83834.95302.86832,1.25577,1.31639,1.67468,1.50118,28.56096,12.60071,56.94864,25.61961,85.77317,37.58719,15.79207,6.55673,32.32386,6.3452,49.3872.18244Zm-449.83498-193.6215c.04918.65158.09823,1.30314.14741,1.95472,3.25076,0,6.54521.34421,9.74497-.05989,13.5263-1.70818,27.00208-3.82788,40.53851-5.44367,19.59854-2.33941,38.09702,2.53667,55.83808,10.10377,9.33752,3.98273,18.05638,4.67736,27.8177,1.86281,12.99451-3.74677,26.32667-6.3228,40.65541-9.66832-1.89921-.93695-2.67736-1.50264-3.54314-1.72119-18.35034-4.6322-36.59464-9.77976-55.10642-13.6462-14.14875-2.95515-28.65772-4.44115-43.08494-1.10035-16.51227,3.8236-32.99122,7.7925-49.46761,11.76907-7.86699,1.8987-15.69445,3.96104-23.53997,5.94925Zm-342.1346-64.83109c57.439,5.79452,113.219-6.28962,169.47111-13.08752-22.54521-12.44882-46.47566-16.5947-71.4138-11.26412-23.06907,4.93104-45.85461,11.1896-68.75621,16.89896-9.77865,2.43782-19.53478,4.96571-29.3011,7.45267Zm246.79669,113.95913c-1.98048-.6622-3.95217-1.35228-5.94277-1.98219-16.63356-5.26356-33.26712-10.52718-49.90788-15.76808-11.56388-3.64198-23.36437-5.42915-35.45077-3.64704-42.81099,6.31233-83.85664,19.27838-124.53321,33.50941-3.35143,1.17251-5.98505,4.39505-8.95217,6.66509.33642.83022.67291,1.66044,1.0094,2.49066,4.96138-.47225,10.12612-.21681,14.85095-1.5357,29.13936-8.13382,58.21819-16.49182,87.24028-25.03583,22.12545-6.51363,44.18048-8.39022,65.99574.66957,17.97487,7.46494,36.4299,8.36209,55.69043,4.63412Zm409.58543,86.0224c-39.81758-24.2016-77.88848-28.8769-110.28763-12.00636,1.80085.9536,3.35131,1.84028,4.95632,2.61386,10.93179,5.26876,22.17145,9.9866,32.72923,15.918,10.0953,5.67157,19.6792,7.49653,31.1008,3.76386,13.20366-4.31509,27.00989-6.78793,41.50129-10.28936Zm-186.54049-119.81088c10.354,7.2841,20.73814,12.19689,32.47664,9.98524,19.38085-3.65157,38.95937-7.10512,57.71899-12.98659,24.02917-7.53351,47.73595-15.38295,73.35279-14.36979-55.96413-10.34918-109.49727,1.68545-163.54841,17.37114Zm-322.84557,198.41205c-16.42807-18.25664-48.05797-30.52855-79.86737-30.28347-22.59287.17409-44.80184,3.20108-64.65492,15.52305,1.48646.68756,2.89335.87009,4.29579.84085,14.11721-.29423,28.24143-1.0715,42.34863-.83182,18.69311.31768,37.07127,2.76509,54.54144,10.21764,13.63332,5.81581,28.00745,5.93311,43.33643,4.53375Zm41.94802,112.37706c43.20745-1.2869,86.41502-2.57383,130.92888-3.89965-35.41172-21.38692-91.25115-19.53452-130.92888,3.89965Zm227.21115,20.01033c-2.88395-1.18228-6.0515-1.77074-9.14277-2.33331-11.0864-2.01737-21.44979,1.39213-31.6986,4.76754-28.29177,9.31779-57.27457,11.03483-86.73156,8.71485-13.89897-1.09464-27.83686-1.69542-41.75718-2.51995-.0277.35143-.05552.7029-.08334,1.05433.57999.24154,1.14033.56223,1.74314.71049,2.25625.55501,4.50738,1.16438,6.79414,1.55668m100.93095,1.67505c16.82782-1.49206,33.93155-1.78894,50.77377-.63365m-253.06509-378.64831c-.09823.33183-.19658.66365-.29494.99548,3.58597,1.6633,7.09421,3.52655,10.77108,4.95581,17.27578,6.71527,35.21721,5.54556,53.21038,4.60797,13.92508-.72561,27.89091-.66448,41.83796-.98116,8.78475-.19947,17.58841-.17611,26.34253-.81555,3.44003-.25126,6.51544-2.62429,5.90031-6.71972-.62343-4.14964-4.31983-2.18105-6.54228-2.1845-35.79293-.05554-71.58622.06588-107.3794.13928-7.94851.01629-15.89714.00239-23.84564.00239Zm-47.24284,128.98795c-22.17218-18.73542-79.0991-14.37653-102.05951,1.94694,34.28402-.65402,67.58494-1.28928,102.05951-1.94694Zm.87541,73.82188c-21.05967-16.56827-82.65304-21.11105-98.78159-8.13091,16.60647,1.37128,32.98744,2.72734,49.36914,4.07571,16.47053,1.35573,32.94156,2.7038,49.41246,4.05519Zm477.62242-27.44032c3.89542,3.58432,104.99904-10.87209,107.94999-14.25469-.51666-.37781-.9961-1.02878-1.52068-1.06744-9.59671-.70784-19.55058-3.28463-28.73277-1.62281-26.06748,4.71784-51.82002,11.17351-77.69654,16.94495Zm-186.11864-60.13428c8.22367,17.35176,48.29836,16.58745,70.90801,10.92882-.53716-.22942-.95095-.49727-1.40012-.5849-20.36266-3.97461-40.71044-8.03101-61.11703-11.7666-2.46284-.45084-5.24539.8432-8.39085,1.42269Zm-253.09047,108.12006c9.40769,3.84308,17.6432,11.22681,28.89494,8.39894,6.10592-1.53457,12.35205-2.50279,18.49518-3.90123,6.13325-1.39616,12.21672-3.01056,18.32203-4.52924-.05699-.6367-.11409-1.27339-.1712-1.91009-21.82355-1.46794-43.62039,1.47721-65.54095,1.94162Zm543.75519-98.20287c4.13215,1.55713,8.62575,2.53215,12.30641,4.81607,4.80391,2.98087,8.77938-.24994,13.12728-.42881,16.93899-.69686,33.88542-1.2102,50.8271-1.84545,4.70067-.17627,9.39427-.53776,14.72374-.85149-2.83441-3.2679-68.32594-4.61038-90.98452-1.69033Zm-553.00047,233.46101c-.10958-.41245-.21904-.82493-.32849-1.23738-24.4166,6.27775-48.83308,12.55546-73.24956,18.83321.11714.44157.23417.88311.35131,1.32468,26.55925,1.78379,51.18988-3.68885,73.22674-18.92051Zm69.5556-306.74122c-.07224.35003-.14448.70006-.21672,1.05008,14.25626,3.48082,28.51251,6.96165,43.10251,10.52393,1.60647-4.77155,3.01196-8.94644,4.62087-13.72504-16.31861.73888-31.91264,1.44496-47.50666,2.15103Zm-238.2239-109.3266c22.72105,8.04267,45.14357,7.15628,67.28647-2.09642-22.4288.69881-44.8576,1.39762-67.28647,2.09642Zm633.19102-4.24205c20.61111,4.50034,41.22307,10.09107,61.81697,0h-61.81697Zm97.94694,90.24381l.1651,1.60816c13.6598,3.99032,27.39329,7.75072,40.93887,12.09683,4.6792,1.50136,8.29518.82896,12.11654-2.12484-.71898-.39077-1.23941-.82627-1.8316-.97323-15.28981-3.79467-30.57279-7.61999-45.90361-11.2429-1.6842-.39803-3.65003.39524-5.4853.63598Z"/>
  </g>
</svg>