<svg id="mrgn" xmlns="http://www.w3.org/2000/svg" width="142.679" height="54.527" viewBox="0 0 142.679 54.527">
  <g id="Group_46" data-name="Group 46" transform="translate(0 0)">
    <path id="Union_1" data-name="Union 1" d="M49.275,48.559H.461v0h0v0H49.275V5.137h0v0h0V48.559h0v0Z" transform="translate(3.421 5.219)" fill="none" stroke="#fff" stroke-width="1.5"/>
    <path id="Polygon_4" data-name="Polygon 4" d="M3.883,0,7.766,5.547H0Z" fill="#fff"/>
  </g>
  <path id="Path_504" data-name="Path 504" d="M24.3,2.874V-12.478l-4.885,10.8H15.146l-4.885-10.8V2.874h-8V-26.27H11l6.28,13.71L23.6-26.27h8.7V2.874Z" transform="translate(10.927 44.092)" fill="#fff"/>
  <path id="Path_505" data-name="Path 505" d="M2.257,2.874V-26.27H15.638a8.854,8.854,0,0,1,3.941.883,10.229,10.229,0,0,1,3.1,2.3,10.735,10.735,0,0,1,2.032,3.243,9.728,9.728,0,0,1,.739,3.674,10.374,10.374,0,0,1-1.108,4.741A9.666,9.666,0,0,1,21.262-7.84L27.419,2.874h-9.03L13.258-6.075h-3V2.874Zm8-15.926H15.31a1.771,1.771,0,0,0,1.375-.821,3.674,3.674,0,0,0,.636-2.3,3.3,3.3,0,0,0-.739-2.319,2.071,2.071,0,0,0-1.478-.8H10.261Z" transform="translate(45.96 44.092)" fill="#fff"/>
  <path id="Path_506" data-name="Path 506" d="M22.2.472A10.827,10.827,0,0,1,15.012,3.1,14.818,14.818,0,0,1,9.594,2.093,12.948,12.948,0,0,1,5.079-.841,14.257,14.257,0,0,1,2-5.562,16.589,16.589,0,0,1,.851-11.924,14.223,14.223,0,0,1,2-17.65a14.213,14.213,0,0,1,3.161-4.6A14.93,14.93,0,0,1,9.9-25.326a15.261,15.261,0,0,1,5.89-1.129,16.218,16.218,0,0,1,3.776.431,13.443,13.443,0,0,1,3.345,1.272,13.179,13.179,0,0,1,2.771,2.011A10.2,10.2,0,0,1,27.7-20.093l-5.952,4.556a6.711,6.711,0,0,0-2.586-2.771A6.926,6.926,0,0,0,15.5-19.354a5.963,5.963,0,0,0-2.627.575,6.14,6.14,0,0,0-2.052,1.6,7.672,7.672,0,0,0-1.355,2.442,9.377,9.377,0,0,0-.493,3.1,9.327,9.327,0,0,0,.493,3.12,7.256,7.256,0,0,0,1.375,2.4,6.12,6.12,0,0,0,2.114,1.56A6.628,6.628,0,0,0,15.71-4a8.183,8.183,0,0,0,6.157-2.873H16.818v-5.747H28.8V2.894H22.2Z" transform="translate(73.16 44.072)" fill="#fff"/>
  <path id="Path_507" data-name="Path 507" d="M10.261-11.452V2.874h-8V-26.27H8.5l11.7,14.818V-26.27h8V2.874H21.837Z" transform="translate(104.766 44.092)" fill="#fff"/>
  <path id="Path_508" data-name="Path 508" d="M1.85.745V-6.808H8.171V.745Z" transform="translate(134.508 46.221)" fill="#fff"/>
</svg>
