<svg id="mrgnlarge" xmlns="http://www.w3.org/2000/svg" width="518.135" height="197.914" viewBox="0 0 518.135 197.914">
  <g id="Group_46" data-name="Group 46" transform="translate(0 0)">
    <path id="Union_1" data-name="Union 1" d="M178.594,176H1.672v0h0v0H178.594V18.619h0v0h0V176h0v0Z" transform="translate(12.401 18.914)" fill="none" stroke="#72c4ff" stroke-width="6"/>
    <path id="Polygon_4" data-name="Polygon 4" d="M14.073,0,28.147,20.1H0Z" fill="#72c4ff"/>
  </g>
  <path id="Path_504" data-name="Path 504" d="M82.149,79.36V23.718l-17.7,39.128H48.972l-17.7-39.128V79.36H2.257V-26.27H33.946L56.709,23.421,79.62-26.27h31.54V79.36Z" transform="translate(45.528 90.866)" fill="#fff"/>
  <path id="Path_505" data-name="Path 505" d="M2.257,79.36V-26.27h48.5a32.09,32.09,0,0,1,14.282,3.2A37.073,37.073,0,0,1,76.272-14.74,38.909,38.909,0,0,1,83.637-2.987a35.257,35.257,0,0,1,2.678,13.315A37.6,37.6,0,0,1,82.3,27.512,35.034,35.034,0,0,1,71.14,40.53L93.456,79.36H60.726l-18.6-32.433H31.268V79.36ZM31.268,21.636h18.3q2.678,0,4.984-2.975t2.306-8.331q0-5.5-2.678-8.406t-5.356-2.9H31.268Z" transform="translate(172.505 90.866)" fill="#fff"/>
  <path id="Path_506" data-name="Path 506" d="M78.214,71.141a39.244,39.244,0,0,1-26.036,9.522A53.707,53.707,0,0,1,32.54,77.018,46.928,46.928,0,0,1,16.175,66.381,51.676,51.676,0,0,1,5.017,49.271,60.127,60.127,0,0,1,.851,26.211,51.549,51.549,0,0,1,16.472-11.206,54.112,54.112,0,0,1,33.656-22.364a55.312,55.312,0,0,1,21.349-4.091,58.781,58.781,0,0,1,13.687,1.562,48.724,48.724,0,0,1,12.125,4.612,47.766,47.766,0,0,1,10.042,7.29,36.955,36.955,0,0,1,7.29,9.6L76.577,13.119A24.323,24.323,0,0,0,67.2,3.077,25.1,25.1,0,0,0,53.964-.717a21.612,21.612,0,0,0-9.522,2.083A22.256,22.256,0,0,0,37,7.168a27.806,27.806,0,0,0-4.91,8.852,33.985,33.985,0,0,0-1.785,11.233A33.807,33.807,0,0,0,32.094,38.56a26.3,26.3,0,0,0,4.984,8.7,22.183,22.183,0,0,0,7.662,5.653,24.023,24.023,0,0,0,9.968,2.008q12.646,0,22.316-10.414h-18.3V23.682h43.442V79.919H78.214Z" transform="translate(267.399 90.307)" fill="#fff"/>
  <path id="Path_507" data-name="Path 507" d="M31.268,27.438V79.36H2.257V-26.27H24.871l42.4,53.708V-26.27H96.283V79.36H73.223Z" transform="translate(385.643 90.866)" fill="#fff"/>
  <path id="Path_508" data-name="Path 508" d="M1.85,20.567V-6.808H24.761V20.567Z" transform="translate(493.374 149.66)" fill="#72c4ff"/>
</svg>
